<svg version="1.1" viewBox="0.0 0.0 225.0 210.0" fill="none" stroke="none" stroke-linecap="square" stroke-miterlimit="10" xmlns:xlink="http://www.w3.org/1999/xlink" xmlns="http://www.w3.org/2000/svg"><clipPath id="p.0"><path d="m0 0l225.0 0l0 210.0l-225.0 0l0 -210.0z" clip-rule="nonzero"/></clipPath><g clip-path="url(#p.0)"><path fill="#000000" fill-opacity="0.0" d="m0 0l225.0 0l0 210.0l-225.0 0z" fill-rule="evenodd"/><path stroke="#000000" stroke-width="1.3333333333333333" stroke-linecap="butt" d="m-0.001271391 -0.6666667l0 210.34647" fill-rule="nonzero"/><path stroke="#000000" stroke-width="1.3333333333333333" stroke-linecap="butt" d="m60.119465 -0.6666667l0 210.34647" fill-rule="nonzero"/><path stroke="#000000" stroke-width="1.3333333333333333" stroke-linecap="butt" d="m-0.66793805 0l61.454067 0" fill-rule="nonzero"/><path stroke="#000000" stroke-width="1.3333333333333333" stroke-linecap="butt" d="m-0.66793805 52.335957l61.454067 0" fill-rule="nonzero"/><path stroke="#000000" stroke-width="1.3333333333333333" stroke-linecap="butt" d="m-0.66793805 104.50656l61.454067 0" fill-rule="nonzero"/><path stroke="#000000" stroke-width="1.3333333333333333" stroke-linecap="butt" d="m-0.66793805 156.84251l61.454067 0" fill-rule="nonzero"/><path stroke="#000000" stroke-width="1.3333333333333333" stroke-linecap="butt" d="m-0.66793805 209.01312l61.454067 0" fill-rule="nonzero"/><path fill="#000000" d="m35.076546 176.9269l0 2.703125q0 3.53125 -1.671875 5.59375q-1.328125 1.609375 -3.328127 1.609375q-0.96875 0 -1.828125 -0.390625q-0.84375 -0.375 -1.4375 -1.0625q-0.375 -0.4375 -0.828125 -1.375q-0.453125 -0.953125 -0.640625 -1.75q-0.296875 -1.125 -0.296875 -2.625l0 -2.703125q0 -3.546875 1.671875 -5.59375q1.3125 -1.609375 3.328125 -1.609375q0.96875 0 1.8125 0.390625q0.8437519 0.375 1.4531269 1.0625q0.390625 0.4375 0.828125 1.390625q0.4375 0.953125 0.65625 1.734375q0.28125 1.109375 0.28125 2.625zm-1.09375 0.140625q0 -1.546875 -0.4375 -2.875q-0.4375 -1.34375 -0.984375 -2.125q-0.328125 -0.46875 -0.8437519 -0.78125q-0.734375 -0.46875 -1.671875 -0.46875q-1.828125 0 -2.875 1.875q-1.03125 1.875 -1.03125 4.375l0 2.40625q0 1.546875 0.4375 2.890625q0.4375 1.34375 0.984375 2.140625q0.3125 0.4375 0.84375 0.765625q0.734375 0.46875 1.671875 0.46875q1.828125 0 2.859377 -1.875q1.046875 -1.890625 1.046875 -4.390625l0 -2.40625z" fill-rule="nonzero"/><path fill="#000000" fill-opacity="0.0" d="m99.64304 6.5118113l125.826775 0l0 38.48819l-125.826775 0z" fill-rule="evenodd"/><path fill="#000000" d="m121.17429 28.70806l-10.03125 0q0.25 1.90625 1.59375 3.078125q1.34375 1.1718769 3.328125 1.1718769q1.09375 0 2.296875 -0.359375q1.21875 -0.375 1.984375 -0.9687519q0.21875 -0.171875 0.375 -0.171875q0.1875 0 0.328125 0.140625q0.140625 0.140625 0.140625 0.34375q0 0.2031269 -0.1875 0.3906269q-0.5625 0.578125 -2.0 1.09375q-1.421875 0.515625 -2.9375 0.515625q-2.53125 0 -4.234375 -1.65625q-1.6875 -1.6718769 -1.6875 -4.015627q0 -2.15625 1.578125 -3.6875q1.59375 -1.53125 3.9375 -1.53125q2.421875 0 3.96875 1.578125q1.5625 1.578125 1.546875 4.078125zm-1.0 -1.0q-0.296875 -1.625 -1.546875 -2.640625q-1.234375 -1.015625 -2.96875 -1.015625q-1.71875 0 -2.96875 1.015625q-1.234375 1.0 -1.53125 2.640625l9.015625 0zm14.183601 -3.3125l0 -0.328125q0 -0.359375 0.140625 -0.515625q0.140625 -0.15625 0.34375 -0.15625q0.234375 0 0.375 0.15625q0.140625 0.15625 0.140625 0.515625l0 2.234375q-0.015625 0.359375 -0.15625 0.515625q-0.125 0.140625 -0.359375 0.140625q-0.1875 0 -0.328125 -0.125q-0.140625 -0.140625 -0.15625 -0.453125q-0.078125 -0.828125 -1.109375 -1.578125q-1.015625 -0.75 -2.75 -0.75q-2.1875 0 -3.3281326 1.375q-1.140625 1.359375 -1.140625 3.125q0 1.921875 1.25 3.171875q1.2656326 1.2343769 3.2500076 1.2343769q1.15625 0 2.34375 -0.421875q1.1875 -0.421875 2.15625 -1.3593769q0.234375 -0.234375 0.421875 -0.234375q0.203125 0 0.328125 0.140625q0.140625 0.125 0.140625 0.328125q0 0.5 -1.171875 1.2656269q-1.921875 1.265625 -4.265625 1.265625q-2.375 0 -3.9062576 -1.515625q-1.53125 -1.5312519 -1.53125 -3.859377q0 -2.375 1.5625 -3.9375q1.5781326 -1.578125 3.9531326 -1.578125q2.265625 0 3.796875 1.34375zm7.0585938 -5.546875l0 6.046875q0.9375 -1.015625 1.796875 -1.421875q0.859375 -0.421875 1.921875 -0.421875q1.15625 0 1.953125 0.40625q0.796875 0.40625 1.328125 1.25q0.546875 0.828125 0.546875 1.75l0 6.109377l1.109375 0q0.359375 0 0.5 0.140625q0.15625 0.125 0.15625 0.34375q0 0.21875 -0.15625 0.359375q-0.140625 0.140625 -0.5 0.140625l-3.203125 0q-0.359375 0 -0.515625 -0.140625q-0.15625 -0.140625 -0.15625 -0.359375q0 -0.21875 0.15625 -0.34375q0.15625 -0.140625 0.515625 -0.140625l1.109375 0l0 -6.031252q0 -1.078125 -0.78125 -1.78125q-0.765625 -0.71875 -2.125 -0.71875q-1.078125 0 -1.84375 0.53125q-0.546875 0.375 -1.8125 1.765625l0 6.234377l1.109375 0q0.34375 0 0.5 0.140625q0.15625 0.125 0.15625 0.34375q0 0.21875 -0.15625 0.359375q-0.15625 0.140625 -0.5 0.140625l-3.21875 0q-0.34375 0 -0.5 -0.140625q-0.15625 -0.140625 -0.15625 -0.359375q0 -0.21875 0.15625 -0.34375q0.15625 -0.140625 0.5 -0.140625l1.125 0l0 -12.734377l-1.328125 0q-0.359375 0 -0.515625 -0.140625q-0.140625 -0.140625 -0.140625 -0.359375q0 -0.203125 0.140625 -0.34375q0.15625 -0.140625 0.515625 -0.140625l2.3125 0zm23.136719 9.65625q0 2.25 -1.609375 3.843752q-1.609375 1.59375 -3.890625 1.59375q-2.296875 0 -3.90625 -1.59375q-1.59375 -1.6093769 -1.59375 -3.843752q0 -2.25 1.59375 -3.84375q1.609375 -1.609375 3.90625 -1.609375q2.28125 0 3.890625 1.59375q1.609375 1.59375 1.609375 3.859375zm-1.0 0q0 -1.859375 -1.3125 -3.15625q-1.3125 -1.296875 -3.1875 -1.296875q-1.875 0 -3.203125 1.3125q-1.3125 1.296875 -1.3125 3.140625q0 1.828125 1.3125 3.140625q1.328125 1.3125019 3.203125 1.3125019q1.875 0 3.1875 -1.3125019q1.3125 -1.3125 1.3125 -3.140625zm6.3867188 -10.734375l7.90625 16.984377q0.109375 0.25 0.109375 0.375q0 0.1875 -0.140625 0.328125q-0.140625 0.140625 -0.34375 0.140625q-0.328125 0 -0.53125 -0.421875l-7.90625 -16.984377q-0.125 -0.25 -0.125 -0.375q0 -0.1875 0.140625 -0.328125q0.15625 -0.140625 0.359375 -0.140625q0.3125 0 0.53125 0.421875zm22.433594 7.21875l0 2.4375q0 3.171875 -1.515625 5.015627q-1.171875 1.46875 -2.984375 1.46875q-0.859375 0 -1.640625 -0.359375q-0.765625 -0.34375 -1.296875 -0.96875q-0.34375 -0.375 -0.75 -1.2343769q-0.40625 -0.859375 -0.578125 -1.578125q-0.265625 -1.0 -0.265625 -2.34375l0 -2.4375q0 -3.1875 1.515625 -5.046875q1.171875 -1.453125 2.984375 -1.453125q0.875 0 1.640625 0.34375q0.765625 0.34375 1.296875 0.96875q0.359375 0.40625 0.75 1.265625q0.40625 0.84375 0.59375 1.546875q0.25 1.015625 0.25 2.375zm-0.984375 0.125q0 -1.390625 -0.390625 -2.59375q-0.390625 -1.203125 -0.890625 -1.921875q-0.28125 -0.40625 -0.75 -0.703125q-0.671875 -0.40625 -1.5 -0.40625q-1.65625 0 -2.59375 1.6875q-0.9375 1.6875 -0.9375 3.9375l0 2.171875q0 1.390625 0.390625 2.59375q0.390625 1.203125 0.890625 1.921875q0.28125 0.4062519 0.75 0.6875019q0.671875 0.421875 1.515625 0.421875q1.640625 0 2.578125 -1.6875019q0.9375 -1.6875 0.9375 -3.9375l0 -2.171875z" fill-rule="nonzero"/><path fill="#000000" fill-opacity="0.0" d="m99.1445 59.343834l149.5433 0l0 38.48819l-149.5433 0z" fill-rule="evenodd"/><path fill="#000000" d="m112.11325 71.68071l0 6.046875q0.9375 -1.015625 1.796875 -1.421875q0.859375 -0.421875 1.921875 -0.421875q1.15625 0 1.953125 0.40625q0.796875 0.40625 1.328125 1.25q0.546875 0.828125 0.546875 1.75l0 6.109375l1.109375 0q0.359375 0 0.5 0.140625q0.15625 0.125 0.15625 0.34375q0 0.21875 -0.15625 0.359375q-0.140625 0.140625 -0.5 0.140625l-3.203125 0q-0.359375 0 -0.515625 -0.140625q-0.15625 -0.140625 -0.15625 -0.359375q0 -0.21875 0.15625 -0.34375q0.15625 -0.140625 0.515625 -0.140625l1.109375 0l0 -6.03125q0 -1.078125 -0.78125 -1.78125q-0.765625 -0.71875 -2.125 -0.71875q-1.078125 0 -1.84375 0.53125q-0.546875 0.375 -1.8125 1.765625l0 6.234375l1.109375 0q0.34375 0 0.5 0.140625q0.15625 0.125 0.15625 0.34375q0 0.21875 -0.15625 0.359375q-0.15625 0.140625 -0.5 0.140625l-3.21875 0q-0.34375 0 -0.5 -0.140625q-0.15625 -0.140625 -0.15625 -0.359375q0 -0.21875 0.15625 -0.34375q0.15625 -0.140625 0.5 -0.140625l1.125 0l0 -12.734375l-1.328125 0q-0.359375 0 -0.515625 -0.140625q-0.140625 -0.140625 -0.140625 -0.359375q0 -0.203125 0.140625 -0.34375q0.15625 -0.140625 0.515625 -0.140625l2.3125 0zm22.964844 9.859375l-10.03125 0q0.25 1.90625 1.59375 3.078125q1.34375 1.171875 3.328125 1.171875q1.09375 0 2.296875 -0.359375q1.21875 -0.375 1.984375 -0.96875q0.21875 -0.171875 0.375 -0.171875q0.1875 0 0.328125 0.140625q0.140625 0.140625 0.140625 0.34375q0 0.203125 -0.1875 0.390625q-0.5625 0.578125 -2.0 1.09375q-1.421875 0.515625 -2.9375 0.515625q-2.53125 0 -4.234375 -1.65625q-1.6875 -1.671875 -1.6875 -4.015625q0 -2.15625 1.578125 -3.6875q1.59375 -1.53125 3.9375 -1.53125q2.421875 0 3.96875 1.578125q1.5625 1.578125 1.546875 4.078125zm-1.0 -1.0q-0.296875 -1.625 -1.546875 -2.640625q-1.234375 -1.015625 -2.96875 -1.015625q-1.71875 0 -2.96875 1.015625q-1.234375 1.0 -1.53125 2.640625l9.015625 0zm10.574219 -8.859375l0 13.71875l3.859375 0q0.375 0 0.515625 0.140625q0.15625 0.125 0.15625 0.34375q0 0.21875 -0.15625 0.359375q-0.140625 0.140625 -0.515625 0.140625l-8.71875 0q-0.34375 0 -0.5 -0.140625q-0.15625 -0.140625 -0.15625 -0.359375q0 -0.21875 0.15625 -0.34375q0.15625 -0.140625 0.5 -0.140625l3.875 0l0 -12.734375l-2.84375 0q-0.34375 0 -0.5 -0.140625q-0.15625 -0.140625 -0.15625 -0.359375q0 -0.203125 0.140625 -0.34375q0.15625 -0.140625 0.515625 -0.140625l3.828125 0zm14.402344 0l0 13.71875l3.859375 0q0.375 0 0.515625 0.140625q0.15625 0.125 0.15625 0.34375q0 0.21875 -0.15625 0.359375q-0.140625 0.140625 -0.515625 0.140625l-8.71875 0q-0.34375 0 -0.5 -0.140625q-0.15625 -0.140625 -0.15625 -0.359375q0 -0.21875 0.15625 -0.34375q0.15625 -0.140625 0.5 -0.140625l3.875 0l0 -12.734375l-2.84375 0q-0.34375 0 -0.5 -0.140625q-0.15625 -0.140625 -0.15625 -0.359375q0 -0.203125 0.140625 -0.34375q0.15625 -0.140625 0.515625 -0.140625l3.828125 0zm19.402344 9.65625q0 2.25 -1.609375 3.84375q-1.609375 1.59375 -3.890625 1.59375q-2.296875 0 -3.90625 -1.59375q-1.59375 -1.609375 -1.59375 -3.84375q0 -2.25 1.59375 -3.84375q1.609375 -1.609375 3.90625 -1.609375q2.28125 0 3.890625 1.59375q1.609375 1.59375 1.609375 3.859375zm-1.0 0q0 -1.859375 -1.3125 -3.15625q-1.3125 -1.296875 -3.1875 -1.296875q-1.875 0 -3.203125 1.3125q-1.3125 1.296875 -1.3125 3.140625q0 1.828125 1.3125 3.140625q1.328125 1.3125 3.203125 1.3125q1.875 0 3.1875 -1.3125q1.3125 -1.3125 1.3125 -3.140625zm7.9492188 1.5l3.203125 0l-3.484375 6.484375q-0.3125 0.578125 -0.765625 0.578125q-0.28125 0 -0.5 -0.203125q-0.203125 -0.203125 -0.203125 -0.5q0 -0.109375 0.046875 -0.25l1.703125 -6.109375zm12.839844 -12.234375l7.90625 16.984375q0.109375 0.25 0.109375 0.375q0 0.1875 -0.140625 0.328125q-0.140625 0.140625 -0.34375 0.140625q-0.328125 0 -0.53125 -0.421875l-7.90625 -16.984375q-0.125 -0.25 -0.125 -0.375q0 -0.1875 0.140625 -0.328125q0.15625 -0.140625 0.359375 -0.140625q0.3125 0 0.53125 0.421875zm22.433594 7.21875l0 2.4375q0 3.171875 -1.515625 5.015625q-1.171875 1.46875 -2.984375 1.46875q-0.859375 0 -1.640625 -0.359375q-0.765625 -0.34375 -1.296875 -0.96875q-0.34375 -0.375 -0.75 -1.234375q-0.40625 -0.859375 -0.578125 -1.578125q-0.265625 -1.0 -0.265625 -2.34375l0 -2.4375q0 -3.1875 1.515625 -5.046875q1.171875 -1.453125 2.984375 -1.453125q0.875 0 1.640625 0.34375q0.765625 0.34375 1.296875 0.96875q0.359375 0.40625 0.75 1.265625q0.40625 0.84375 0.59375 1.546875q0.25 1.015625 0.25 2.375zm-0.984375 0.125q0 -1.390625 -0.390625 -2.59375q-0.390625 -1.203125 -0.890625 -1.921875q-0.28125 -0.40625 -0.75 -0.703125q-0.671875 -0.40625 -1.5 -0.40625q-1.65625 0 -2.59375 1.6875q-0.9375 1.6875 -0.9375 3.9375l0 2.171875q0 1.390625 0.390625 2.59375q0.390625 1.203125 0.890625 1.921875q0.28125 0.40625 0.75 0.6875q0.671875 0.421875 1.515625 0.421875q1.640625 0 2.578125 -1.6875q0.9375 -1.6875 0.9375 -3.9375l0 -2.171875z" fill-rule="nonzero"/><path fill="#000000" fill-opacity="0.0" d="m98.30971 105.51181l143.68504 0l0 38.48819l-143.68504 0z" fill-rule="evenodd"/><path fill="#000000" d="m117.90346 132.5518l-1.21875 0.015625l-2.171875 -6.3281174l-2.15625 6.3281174l-1.21875 -0.015625l-2.03125 -9.156242l-0.484375 0q-0.34375 0 -0.5 -0.140625q-0.15625 -0.140625 -0.15625 -0.359375q0 -0.21875 0.15625 -0.359375q0.15625 -0.140625 0.5 -0.140625l2.703125 0q0.359375 0 0.5 0.140625q0.15625 0.140625 0.15625 0.375q0 0.203125 -0.15625 0.34375q-0.140625 0.140625 -0.5 0.140625l-1.25 0l1.75 7.8124924l2.09375 -6.2343674l1.171875 0l2.15625 6.2343674l1.671875 -7.8124924l-1.234375 0q-0.359375 0 -0.515625 -0.140625q-0.15625 -0.140625 -0.15625 -0.359375q0 -0.21875 0.15625 -0.359375q0.15625 -0.140625 0.515625 -0.140625l2.6875 0q0.375 0 0.515625 0.140625q0.15625 0.140625 0.15625 0.375q0 0.203125 -0.15625 0.34375q-0.140625 0.140625 -0.515625 0.140625l-0.46875 0l-2.0 9.156242zm16.511719 -5.0468674q0 2.2499924 -1.609375 3.8437424q-1.609375 1.59375 -3.890625 1.59375q-2.296875 0 -3.90625 -1.59375q-1.59375 -1.609375 -1.59375 -3.8437424q0 -2.25 1.59375 -3.84375q1.609375 -1.609375 3.90625 -1.609375q2.28125 0 3.890625 1.59375q1.609375 1.59375 1.609375 3.859375zm-1.0 0q0 -1.859375 -1.3125 -3.15625q-1.3125 -1.296875 -3.1875 -1.296875q-1.875 0 -3.203125 1.3125q-1.3125 1.296875 -1.3125 3.140625q0 1.8281174 1.3125 3.1406174q1.328125 1.3125 3.203125 1.3125q1.875 0 3.1875 -1.3125q1.3125 -1.3125 1.3125 -3.1406174zm8.730469 -5.109375l0 2.484375q1.921875 -1.734375 2.875 -2.21875q0.953125 -0.5 1.765625 -0.5q0.875 0 1.625 0.59375q0.765625 0.578125 0.765625 0.890625q0 0.21875 -0.15625 0.375q-0.140625 0.140625 -0.359375 0.140625q-0.125 0 -0.203125 -0.03125q-0.078125 -0.046875 -0.3125 -0.28125q-0.40625 -0.40625 -0.71875 -0.546875q-0.296875 -0.15625 -0.59375 -0.15625q-0.640625 0 -1.546875 0.515625q-0.90625 0.515625 -3.140625 2.515625l0 5.3906174l4.359375 0q0.359375 0 0.5 0.140625q0.15625 0.125 0.15625 0.34375q0 0.21875 -0.15625 0.359375q-0.140625 0.140625 -0.5 0.140625l-7.734375 0q-0.34375 0 -0.5 -0.125q-0.15625 -0.140625 -0.15625 -0.359375q0 -0.203125 0.140625 -0.328125q0.15625 -0.140625 0.515625 -0.140625l2.390625 0l0 -8.203117l-1.828125 0q-0.34375 0 -0.5 -0.140625q-0.15625 -0.140625 -0.15625 -0.359375q0 -0.21875 0.140625 -0.359375q0.15625 -0.140625 0.515625 -0.140625l2.8125 0zm16.074219 -4.546875l0 13.718742l3.859375 0q0.375 0 0.515625 0.140625q0.15625 0.125 0.15625 0.34375q0 0.21875 -0.15625 0.359375q-0.140625 0.140625 -0.515625 0.140625l-8.71875 0q-0.34375 0 -0.5 -0.140625q-0.15625 -0.140625 -0.15625 -0.359375q0 -0.21875 0.15625 -0.34375q0.15625 -0.140625 0.5 -0.140625l3.875 0l0 -12.734367l-2.84375 0q-0.34375 0 -0.5 -0.140625q-0.15625 -0.140625 -0.15625 -0.359375q0 -0.203125 0.140625 -0.34375q0.15625 -0.140625 0.515625 -0.140625l3.828125 0zm18.730469 0l0 13.718742l1.3125 0q0.359375 0 0.5 0.140625q0.15625 0.125 0.15625 0.34375q0 0.21875 -0.15625 0.359375q-0.140625 0.140625 -0.5 0.140625l-2.3125 0l0 -1.953125q-1.71875 2.34375 -4.34375 2.34375q-1.34375 0 -2.578125 -0.703125q-1.21875 -0.71875 -1.921875 -2.03125q-0.703125 -1.3125 -0.703125 -2.7031174q0 -1.40625 0.703125 -2.71875q0.703125 -1.3125 1.921875 -2.015625q1.234375 -0.71875 2.578125 -0.71875q2.578125 0 4.34375 2.34375l0 -5.5625l-1.3125 0q-0.359375 0 -0.515625 -0.140625q-0.15625 -0.140625 -0.15625 -0.359375q0 -0.203125 0.15625 -0.34375q0.15625 -0.140625 0.515625 -0.140625l2.3125 0zm-1.0 9.65625q0 -1.875 -1.265625 -3.15625q-1.265625 -1.296875 -3.015625 -1.296875q-1.75 0 -3.015625 1.296875q-1.265625 1.28125 -1.265625 3.15625q0 1.8593674 1.265625 3.1562424q1.265625 1.296875 3.015625 1.296875q1.75 0 3.015625 -1.296875q1.265625 -1.296875 1.265625 -3.1562424zm7.0585938 -10.734375l7.90625 16.984367q0.109375 0.25 0.109375 0.375q0 0.1875 -0.140625 0.328125q-0.140625 0.140625 -0.34375 0.140625q-0.328125 0 -0.53125 -0.421875l-7.90625 -16.984367q-0.125 -0.25 -0.125 -0.375q0 -0.1875 0.140625 -0.328125q0.15625 -0.140625 0.359375 -0.140625q0.3125 0 0.53125 0.421875zm22.433594 7.21875l0 2.4375q0 3.1718674 -1.515625 5.0156174q-1.171875 1.46875 -2.984375 1.46875q-0.859375 0 -1.640625 -0.359375q-0.765625 -0.34375 -1.296875 -0.96875q-0.34375 -0.375 -0.75 -1.234375q-0.40625 -0.859375 -0.578125 -1.578125q-0.265625 -0.9999924 -0.265625 -2.3437424l0 -2.4375q0 -3.1875 1.515625 -5.046875q1.171875 -1.453125 2.984375 -1.453125q0.875 0 1.640625 0.34375q0.765625 0.34375 1.296875 0.96875q0.359375 0.40625 0.75 1.265625q0.40625 0.84375 0.59375 1.546875q0.25 1.015625 0.25 2.375zm-0.984375 0.125q0 -1.390625 -0.390625 -2.59375q-0.390625 -1.203125 -0.890625 -1.921875q-0.28125 -0.40625 -0.75 -0.703125q-0.671875 -0.40625 -1.5 -0.40625q-1.65625 0 -2.59375 1.6875q-0.9375 1.6875 -0.9375 3.9375l0 2.171875q0 1.390625 0.390625 2.5937424q0.390625 1.203125 0.890625 1.921875q0.28125 0.40625 0.75 0.6875q0.671875 0.421875 1.515625 0.421875q1.640625 0 2.578125 -1.6875q0.9375 -1.6875 0.9375 -3.9374924l0 -2.171875z" fill-rule="nonzero"/><path fill="#000000" fill-opacity="0.0" d="m66.80979 28.510561l37.826775 0" fill-rule="evenodd"/><path stroke="#000000" stroke-width="1.0" stroke-linejoin="round" stroke-linecap="butt" d="m66.80979 28.510561l31.826775 0" fill-rule="evenodd"/><path fill="#000000" stroke="#000000" stroke-width="1.0" stroke-linecap="butt" d="m98.636566 30.162292l4.5380936 -1.6517315l-4.5380936 -1.6517334z" fill-rule="evenodd"/><path fill="#000000" fill-opacity="0.0" d="m66.80979 78.51054l37.826775 0" fill-rule="evenodd"/><path stroke="#000000" stroke-width="1.0" stroke-linejoin="round" stroke-linecap="butt" d="m66.80979 78.51054l31.826775 0" fill-rule="evenodd"/><path fill="#000000" stroke="#000000" stroke-width="1.0" stroke-linecap="butt" d="m98.636566 80.16227l4.5380936 -1.6517334l-4.5380936 -1.6517258z" fill-rule="evenodd"/><path fill="#000000" fill-opacity="0.0" d="m66.80979 128.34383l37.826775 0" fill-rule="evenodd"/><path stroke="#000000" stroke-width="1.0" stroke-linejoin="round" stroke-linecap="butt" d="m66.80979 128.34383l31.826775 0" fill-rule="evenodd"/><path fill="#000000" stroke="#000000" stroke-width="1.0" stroke-linecap="butt" d="m98.636566 129.99556l4.5380936 -1.6517334l-4.5380936 -1.6517258z" fill-rule="evenodd"/></g></svg>