<svg version="1.1" viewBox="0.0 0.0 359.98950131233596 100.0" fill="none" stroke="none" stroke-linecap="square" stroke-miterlimit="10" xmlns:xlink="http://www.w3.org/1999/xlink" xmlns="http://www.w3.org/2000/svg"><clipPath id="p.0"><path d="m0 0l359.9895 0l0 100.0l-359.9895 0l0 -100.0z" clip-rule="nonzero"/></clipPath><g clip-path="url(#p.0)"><path fill="#000000" fill-opacity="0.0" d="m0 0l359.9895 0l0 100.0l-359.9895 0z" fill-rule="evenodd"/><path stroke="#000000" stroke-width="1.3333333333333333" stroke-linecap="butt" d="m75.427864 7.9803557l0 36.934383" fill-rule="nonzero"/><path stroke="#000000" stroke-width="1.3333333333333333" stroke-linecap="butt" d="m115.427864 7.9803557l0 36.934383" fill-rule="nonzero"/><path stroke="#000000" stroke-width="1.3333333333333333" stroke-linecap="butt" d="m155.42786 7.9803557l0 36.934383" fill-rule="nonzero"/><path stroke="#000000" stroke-width="1.3333333333333333" stroke-linecap="butt" d="m195.42786 7.9803557l0 36.934383" fill-rule="nonzero"/><path stroke="#000000" stroke-width="1.3333333333333333" stroke-linecap="butt" d="m235.09453 7.9803557l0 36.934383" fill-rule="nonzero"/><path stroke="#000000" stroke-width="1.3333333333333333" stroke-linecap="butt" d="m275.09454 7.9803557l0 36.934383" fill-rule="nonzero"/><path stroke="#000000" stroke-width="1.3333333333333333" stroke-linecap="butt" d="m315.09454 7.9803557l0 36.934383" fill-rule="nonzero"/><path stroke="#000000" stroke-width="1.3333333333333333" stroke-linecap="butt" d="m74.76119 8.647022l241.0 0" fill-rule="nonzero"/><path stroke="#000000" stroke-width="1.3333333333333333" stroke-linecap="butt" d="m74.76119 44.248074l241.0 0" fill-rule="nonzero"/><path fill="#000000" d="m87.896614 18.314522l0 6.984375q1.15625 -1.28125 1.828125 -1.640625q0.6875 -0.359375 1.359375 -0.359375q0.8125 0 1.390625 0.453125q0.59375 0.453125 0.875 1.40625q0.1875 0.671875 0.1875 2.4375l0 3.375q0 0.90625 0.15625 1.234375q0.09375 0.25 0.34375 0.40625q0.25 0.140625 0.921875 0.140625l0 0.375l-4.6875 0l0 -0.375l0.21875 0q0.671875 0 0.921875 -0.203125q0.265625 -0.203125 0.375 -0.59375q0.03125 -0.171875 0.03125 -0.984375l0 -3.375q0 -1.5625 -0.171875 -2.046875q-0.15625 -0.5 -0.515625 -0.734375q-0.34375 -0.25 -0.84375 -0.25q-0.515625 0 -1.078125 0.28125q-0.546875 0.265625 -1.3125 1.078125l0 5.046875q0 0.984375 0.109375 1.21875q0.109375 0.234375 0.40625 0.40625q0.296875 0.15625 1.03125 0.15625l0 0.375l-4.734375 0l0 -0.375q0.640625 0 1.0 -0.203125q0.203125 -0.09375 0.328125 -0.390625q0.125 -0.296875 0.125 -1.1875l0 -8.625q0 -1.640625 -0.078125 -2.015625q-0.078125 -0.375 -0.234375 -0.5q-0.15625 -0.140625 -0.4375 -0.140625q-0.21875 0 -0.703125 0.15625l-0.140625 -0.359375l2.84375 -1.171875l0.484375 0z" fill-rule="nonzero"/><path fill="#000000" d="m126.69349 27.173897q0 2.125 1.03125 3.34375q1.0468674 1.203125 2.4531174 1.203125q0.9375 0 1.625 -0.515625q0.703125 -0.515625 1.171875 -1.765625l0.3125 0.203125q-0.21875 1.4375 -1.265625 2.609375q-1.046875 1.171875 -2.640625 1.171875q-1.7187424 0 -2.9374924 -1.34375q-1.21875 -1.34375 -1.21875 -3.59375q0 -2.453125 1.25 -3.8125q1.25 -1.375 3.1562424 -1.375q1.59375 0 2.625 1.0625q1.03125 1.046875 1.03125 2.8125l-6.5937424 0zm0 -0.59375l4.4218674 0q-0.046875 -0.921875 -0.21875 -1.296875q-0.265625 -0.578125 -0.78125 -0.90625q-0.515625 -0.34375 -1.078125 -0.34375q-0.859375 0 -1.5468674 0.671875q-0.671875 0.671875 -0.796875 1.875z" fill-rule="nonzero"/><path fill="#000000" d="m168.38098 18.314522l0 12.65625q0 0.890625 0.125 1.1875q0.125 0.296875 0.390625 0.453125q0.28125 0.140625 1.015625 0.140625l0 0.375l-4.671875 0l0 -0.375q0.65625 0 0.890625 -0.125q0.25 -0.140625 0.375 -0.453125q0.140625 -0.3125 0.140625 -1.203125l0 -8.65625q0 -1.625 -0.078125 -1.984375q-0.0625 -0.375 -0.234375 -0.5q-0.15625 -0.140625 -0.40625 -0.140625q-0.265625 0 -0.6875 0.15625l-0.171875 -0.359375l2.84375 -1.171875l0.46875 0z" fill-rule="nonzero"/><path fill="#000000" d="m208.38098 18.314522l0 12.65625q0 0.890625 0.125 1.1875q0.125 0.296875 0.390625 0.453125q0.28125 0.140625 1.015625 0.140625l0 0.375l-4.671875 0l0 -0.375q0.65625 0 0.890625 -0.125q0.25 -0.140625 0.375 -0.453125q0.140625 -0.3125 0.140625 -1.203125l0 -8.65625q0 -1.625 -0.078125 -1.984375q-0.0625 -0.375 -0.234375 -0.5q-0.15625 -0.140625 -0.40625 -0.140625q-0.265625 0 -0.6875 0.15625l-0.171875 -0.359375l2.84375 -1.171875l0.46875 0z" fill-rule="nonzero"/><path fill="#000000" d="m249.42265 23.298897q2.171875 0 3.484375 1.65625q1.109375 1.40625 1.109375 3.21875q0 1.28125 -0.609375 2.59375q-0.609375 1.3125 -1.6875 1.984375q-1.078125 0.671875 -2.40625 0.671875q-2.15625 0 -3.421875 -1.71875q-1.078125 -1.453125 -1.078125 -3.25q0 -1.3125 0.640625 -2.609375q0.65625 -1.296875 1.71875 -1.921875q1.0625 -0.625 2.25 -0.625zm-0.3125 0.6875q-0.5625 0 -1.125 0.328125q-0.546875 0.328125 -0.890625 1.15625q-0.34375 0.8125 -0.34375 2.109375q0 2.078125 0.828125 3.59375q0.828125 1.5 2.1875 1.5q1.0 0 1.65625 -0.828125q0.65625 -0.828125 0.65625 -2.859375q0 -2.546875 -1.09375 -4.0q-0.734375 -1.0 -1.875 -1.0z" fill-rule="nonzero"/><path fill="#000000" d="m284.95392 18.314522l5.109375 15.109375l-0.828125 0l-5.109375 -15.109375l0.828125 0zm5.8318787 7.828125q0 -2.40625 0.734375 -4.140625q0.734375 -1.75 1.9375 -2.609375q0.9375 -0.671875 1.9375 -0.671875q1.625 0 2.921875 1.65625q1.609375 2.046875 1.609375 5.546875q0 2.46875 -0.71875 4.1875q-0.703125 1.71875 -1.796875 2.5q-1.09375 0.765625 -2.125 0.765625q-2.015625 0 -3.359375 -2.390625q-1.140625 -2.0 -1.140625 -4.84375zm2.046875 0.265625q0 2.921875 0.71875 4.765625q0.59375 1.546875 1.765625 1.546875q0.5625 0 1.171875 -0.5q0.609375 -0.515625 0.921875 -1.703125q0.46875 -1.78125 0.46875 -5.046875q0 -2.421875 -0.5 -4.03125q-0.375 -1.1875 -0.96875 -1.6875q-0.421875 -0.34375 -1.03125 -0.34375q-0.703125 0 -1.25 0.625q-0.75 0.875 -1.03125 2.734375q-0.265625 1.84375 -0.265625 3.640625z" fill-rule="nonzero"/><path stroke="#000000" stroke-width="1.3333333333333333" stroke-linecap="butt" d="m77.59449 52.480316l0 36.93438" fill-rule="nonzero"/><path stroke="#000000" stroke-width="1.3333333333333333" stroke-linecap="butt" d="m117.59449 52.480316l0 36.93438" fill-rule="nonzero"/><path stroke="#000000" stroke-width="1.3333333333333333" stroke-linecap="butt" d="m157.59448 52.480316l0 36.93438" fill-rule="nonzero"/><path stroke="#000000" stroke-width="1.3333333333333333" stroke-linecap="butt" d="m197.59448 52.480316l0 36.93438" fill-rule="nonzero"/><path stroke="#000000" stroke-width="1.3333333333333333" stroke-linecap="butt" d="m237.26115 52.480316l0 36.93438" fill-rule="nonzero"/><path stroke="#000000" stroke-width="1.3333333333333333" stroke-linecap="butt" d="m277.26117 52.480316l0 36.93438" fill-rule="nonzero"/><path stroke="#000000" stroke-width="1.3333333333333333" stroke-linecap="butt" d="m317.26117 52.480316l0 36.93438" fill-rule="nonzero"/><path stroke="#000000" stroke-width="1.3333333333333333" stroke-linecap="butt" d="m357.26117 52.480316l0 36.93438" fill-rule="nonzero"/><path stroke="#000000" stroke-width="1.3333333333333333" stroke-linecap="butt" d="m76.92782 53.14698l281.0 0" fill-rule="nonzero"/><path stroke="#000000" stroke-width="1.3333333333333333" stroke-linecap="butt" d="m76.92782 88.74803l281.0 0" fill-rule="nonzero"/><path fill="#000000" d="m86.735115 68.08011l4.0 0l0 0.390625q-0.5625 0.046875 -0.734375 0.203125q-0.171875 0.15625 -0.171875 0.4375q0 0.328125 0.1875 0.78125l2.03125 5.5l2.0625 -4.46875l-0.546875 -1.40625q-0.25 -0.625 -0.65625 -0.875q-0.234375 -0.140625 -0.859375 -0.171875l0 -0.390625l4.546875 0l0 0.390625q-0.75 0.03125 -1.0625 0.265625q-0.203125 0.171875 -0.203125 0.53125q0 0.21875 0.078125 0.4375l2.15625 5.46875l2.015625 -5.28125q0.203125 -0.5625 0.203125 -0.890625q0 -0.203125 -0.203125 -0.359375q-0.203125 -0.15625 -0.796875 -0.171875l0 -0.390625l3.015625 0l0 0.390625q-0.90625 0.140625 -1.328125 1.234375l-3.1875 8.21875l-0.421875 0l-2.390625 -6.09375l-2.78125 6.09375l-0.390625 0l-3.0625 -8.03125q-0.296875 -0.75 -0.59375 -1.015625q-0.28125 -0.265625 -0.90625 -0.40625l0 -0.390625z" fill-rule="nonzero"/><path fill="#000000" d="m131.9226 67.79886q2.171875 0 3.484375 1.65625q1.109375 1.40625 1.109375 3.21875q0 1.28125 -0.609375 2.59375q-0.609375 1.3125 -1.6875 1.984375q-1.078125 0.671875 -2.40625 0.671875q-2.15625 0 -3.421875 -1.71875q-1.0781174 -1.453125 -1.0781174 -3.25q0 -1.3125 0.640625 -2.609375q0.6562424 -1.296875 1.7187424 -1.921875q1.0625 -0.625 2.25 -0.625zm-0.3125 0.6875q-0.5625 0 -1.125 0.328125q-0.546875 0.328125 -0.890625 1.15625q-0.34375 0.8125 -0.34375 2.109375q0 2.078125 0.828125 3.59375q0.828125 1.5 2.1875 1.5q1.0 0 1.65625 -0.828125q0.65625 -0.828125 0.65625 -2.859375q0 -2.546875 -1.09375 -4.0q-0.734375 -1.0 -1.875 -1.0z" fill-rule="nonzero"/><path fill="#000000" d="m170.0476 67.79886l0 2.15625q1.203125 -2.15625 2.46875 -2.15625q0.5625 0 0.9375 0.359375q0.375 0.34375 0.375 0.796875q0 0.40625 -0.265625 0.6875q-0.265625 0.28125 -0.640625 0.28125q-0.375 0 -0.828125 -0.359375q-0.453125 -0.359375 -0.671875 -0.359375q-0.1875 0 -0.40625 0.21875q-0.46875 0.421875 -0.96875 1.40625l0 4.5625q0 0.796875 0.203125 1.203125q0.140625 0.28125 0.484375 0.46875q0.34375 0.1875 0.984375 0.1875l0 0.375l-4.890625 0l0 -0.375q0.734375 0 1.09375 -0.234375q0.25 -0.15625 0.359375 -0.53125q0.046875 -0.171875 0.046875 -1.0l0 -3.703125q0 -1.671875 -0.0625 -1.984375q-0.0625 -0.3125 -0.25 -0.453125q-0.1875 -0.15625 -0.453125 -0.15625q-0.328125 0 -0.734375 0.15625l-0.09375 -0.375l2.875 -1.171875l0.4375 0z" fill-rule="nonzero"/><path fill="#000000" d="m210.5476 62.81448l0 12.656254q0 0.890625 0.125 1.1875q0.125 0.296875 0.390625 0.453125q0.28125 0.140625 1.015625 0.140625l0 0.375l-4.671875 0l0 -0.375q0.65625 0 0.890625 -0.125q0.25 -0.140625 0.375 -0.453125q0.140625 -0.3125 0.140625 -1.203125l0 -8.65625q0 -1.625 -0.078125 -1.984375q-0.0625 -0.375 -0.234375 -0.5q-0.15625 -0.140625 -0.40625 -0.140625q-0.265625 0 -0.6875 0.15625l-0.171875 -0.3593788l2.84375 -1.171875l0.46875 0z" fill-rule="nonzero"/><path fill="#000000" d="m253.6674 76.54886q-0.703125 0.734375 -1.375 1.0625q-0.65625 0.3125 -1.421875 0.3125q-1.5625 0 -2.734375 -1.3125q-1.171875 -1.3125 -1.171875 -3.359375q0 -2.046875 1.296875 -3.75q1.296875 -1.703125 3.328125 -1.703125q1.25 0 2.078125 0.796875l0 -1.75q0 -1.640625 -0.078125 -2.015625q-0.078125 -0.375 -0.25 -0.5q-0.15625 -0.140625 -0.40625 -0.140625q-0.28125 0 -0.71875 0.15625l-0.140625 -0.3593788l2.84375 -1.171875l0.46875 0l0 11.031254q0 1.671875 0.078125 2.046875q0.078125 0.375 0.25 0.515625q0.171875 0.140625 0.40626526 0.140625q0.28125 0 0.75 -0.171875l0.109375 0.359375l-2.8281403 1.1875l-0.484375 0l0 -1.375zm0 -0.71875l0 -4.921875q-0.0625 -0.703125 -0.375 -1.28125q-0.3125 -0.59375 -0.828125 -0.890625q-0.515625 -0.296875 -1.0 -0.296875q-0.921875 0 -1.640625 0.828125q-0.953125 1.078125 -0.953125 3.15625q0 2.109375 0.921875 3.234375q0.921875 1.109375 2.046875 1.109375q0.9375 0 1.828125 -0.9375z" fill-rule="nonzero"/><path fill="#000000" d="m290.01117 73.89261l-0.390625 0l-0.921875 -8.4375q-0.0625 -0.546875 -0.0625 -0.828125q0 -0.6562538 0.34375 -1.0468788q0.359375 -0.390625 0.84375 -0.390625q0.484375 0 0.828125 0.390625q0.34375 0.390625 0.34375 1.1718788q0 0.25 -0.046875 0.703125l-0.9375 8.4375zm-0.203125 1.71875q0.46875 0 0.8125 0.34375q0.34375 0.34375 0.34375 0.8125q0 0.46875 -0.34375 0.8125q-0.34375 0.34375 -0.8125 0.34375q-0.484375 0 -0.828125 -0.34375q-0.328125 -0.34375 -0.328125 -0.8125q0 -0.46875 0.328125 -0.8125q0.34375 -0.34375 0.828125 -0.34375z" fill-rule="nonzero"/><path fill="#000000" d="m327.12054 62.81448l5.109375 15.109379l-0.828125 0l-5.109375 -15.109379l0.828125 0zm5.8318787 7.828129q0 -2.40625 0.734375 -4.140625q0.734375 -1.75 1.9375 -2.6093788q0.9375 -0.671875 1.9375 -0.671875q1.625 0 2.921875 1.6562538q1.609375 2.046875 1.609375 5.546875q0 2.46875 -0.71875 4.1875q-0.703125 1.71875 -1.796875 2.5q-1.09375 0.765625 -2.125 0.765625q-2.015625 0 -3.359375 -2.390625q-1.140625 -2.0 -1.140625 -4.84375zm2.046875 0.265625q0 2.921875 0.71875 4.765625q0.59375 1.546875 1.765625 1.546875q0.5625 0 1.171875 -0.5q0.609375 -0.515625 0.921875 -1.703125q0.46875 -1.78125 0.46875 -5.046875q0 -2.421875 -0.5 -4.03125q-0.375 -1.1875 -0.96875 -1.6875q-0.421875 -0.3437538 -1.03125 -0.3437538q-0.703125 0 -1.25 0.6250038q-0.75 0.875 -1.03125 2.734375q-0.265625 1.84375 -0.265625 3.640625z" fill-rule="nonzero"/><path stroke="#000000" stroke-width="1.3333333333333333" stroke-linecap="butt" d="m5.594488 4.813648l0 72.53543" fill-rule="nonzero"/><path stroke="#000000" stroke-width="1.3333333333333333" stroke-linecap="butt" d="m45.59449 4.813648l0 72.53543" fill-rule="nonzero"/><path stroke="#000000" stroke-width="1.3333333333333333" stroke-linecap="butt" d="m4.9278216 5.4803147l41.333332 0" fill-rule="nonzero"/><path stroke="#000000" stroke-width="1.3333333333333333" stroke-linecap="butt" d="m4.9278216 41.081364l41.333332 0" fill-rule="nonzero"/><path stroke="#000000" stroke-width="1.3333333333333333" stroke-linecap="butt" d="m4.9278216 76.68241l41.333332 0" fill-rule="nonzero"/><path fill="#000000" fill-opacity="0.0" d="m49.649605 56.503937l24.09449 14.708664" fill-rule="evenodd"/><path stroke="#000000" stroke-width="1.0" stroke-linejoin="round" stroke-linecap="butt" d="m49.649605 56.503937l18.973312 11.582397" fill-rule="evenodd"/><path fill="#000000" stroke="#000000" stroke-width="1.0" stroke-linecap="butt" d="m67.76229 69.49614l4.734024 0.95474243l-3.0127716 -3.7743454z" fill-rule="evenodd"/><path fill="#000000" fill-opacity="0.0" d="m49.649605 24.385826l22.551186 0.37795258" fill-rule="evenodd"/><path stroke="#000000" stroke-width="1.0" stroke-linejoin="round" stroke-linecap="butt" d="m49.649605 24.385826l16.552025 0.2774086" fill-rule="evenodd"/><path fill="#000000" stroke="#000000" stroke-width="1.0" stroke-linecap="butt" d="m66.17395 26.314735l4.56514 -1.5754528l-4.509781 -1.7275486z" fill-rule="evenodd"/></g></svg>