<svg version="1.1" viewBox="0.0 0.0 671.0 118.0" fill="none" stroke="none" stroke-linecap="square" stroke-miterlimit="10" xmlns:xlink="http://www.w3.org/1999/xlink" xmlns="http://www.w3.org/2000/svg"><clipPath id="p.0"><path d="m0 0l671.0 0l0 118.0l-671.0 0l0 -118.0z" clip-rule="nonzero"/></clipPath><g clip-path="url(#p.0)"><path fill="#000000" fill-opacity="0.0" d="m0 0l671.0 0l0 118.0l-671.0 0z" fill-rule="evenodd"/><path stroke="#000000" stroke-width="1.3333333333333333" stroke-linecap="butt" d="m6.085187 6.498052l0 55.934383" fill-rule="nonzero"/><path stroke="#000000" stroke-width="1.3333333333333333" stroke-linecap="butt" d="m70.08519 6.498052l0 55.934383" fill-rule="nonzero"/><path stroke="#000000" stroke-width="1.3333333333333333" stroke-linecap="butt" d="m134.08519 6.498052l0 55.934383" fill-rule="nonzero"/><path stroke="#000000" stroke-width="1.3333333333333333" stroke-linecap="butt" d="m198.08519 6.498052l0 55.934383" fill-rule="nonzero"/><path stroke="#000000" stroke-width="1.3333333333333333" stroke-linecap="butt" d="m262.08517 6.498052l0 55.934383" fill-rule="nonzero"/><path stroke="#000000" stroke-width="1.3333333333333333" stroke-linecap="butt" d="m326.08517 6.498052l0 55.934383" fill-rule="nonzero"/><path stroke="#000000" stroke-width="1.3333333333333333" stroke-linecap="butt" d="m390.08517 6.498052l0 55.934383" fill-rule="nonzero"/><path stroke="#000000" stroke-width="1.3333333333333333" stroke-linecap="butt" d="m454.08517 6.498052l0 55.934383" fill-rule="nonzero"/><path stroke="#000000" stroke-width="1.3333333333333333" stroke-linecap="butt" d="m518.0852 6.498052l0 55.934383" fill-rule="nonzero"/><path stroke="#000000" stroke-width="1.3333333333333333" stroke-linecap="butt" d="m582.0852 6.498052l0 55.934383" fill-rule="nonzero"/><path stroke="#000000" stroke-width="1.3333333333333333" stroke-linecap="butt" d="m646.0852 6.498052l0 55.934383" fill-rule="nonzero"/><path stroke="#000000" stroke-width="1.3333333333333333" stroke-linecap="butt" d="m5.4185205 7.1647186l641.3333 0" fill-rule="nonzero"/><path stroke="#000000" stroke-width="1.3333333333333333" stroke-linecap="butt" d="m5.4185205 61.76577l641.3333 0" fill-rule="nonzero"/><path fill="#000000" fill-opacity="0.0" d="m-1.4132717 66.83266l98.45669 0l0 41.66929l-98.45669 0z" fill-rule="evenodd"/><path fill="#000000" d="m18.727354 96.432655l0 -1.578125q-2.375 2.0 -5.093751 2.0q-1.953125 0 -3.0625 -0.984375q-1.109375 -1.0 -1.109375 -2.4375q0 -1.59375 1.453125 -2.78125q1.46875 -1.1875 4.265625 -1.1875q0.75 0 1.625001 0.109375q0.890625 0.09375 1.921875 0.296875l0 -1.765625q0 -0.90625 -0.84375 -1.5625q-0.828125 -0.671875 -2.484376 -0.671875q-1.28125 0 -3.578125 0.75q-0.421875 0.125 -0.53125 0.125q-0.21875 0 -0.375 -0.15625q-0.140625 -0.15625 -0.140625 -0.390625q0 -0.21875 0.125 -0.34375q0.1875 -0.203125 1.484375 -0.53125q2.015625 -0.546875 3.0625 -0.546875q2.078126 0 3.234376 1.015625q1.15625 1.015625 1.15625 2.3125l0 7.234375l1.453125 0q0.40625 0 0.578125 0.15625q0.171875 0.140625 0.171875 0.390625q0 0.234375 -0.171875 0.390625q-0.171875 0.15625 -0.578125 0.15625l-2.5625 0zm0 -5.4375q-0.765625 -0.21875 -1.625 -0.328125q-0.859375 -0.109375 -1.812501 -0.109375q-2.375 0 -3.71875 1.03125q-1.015625 0.765625 -1.015625 1.84375q0 0.984375 0.765625 1.671875q0.78125 0.671875 2.265625 0.671875q1.421875 0 2.640626 -0.5625q1.21875 -0.578125 2.5 -1.8125l0 -2.40625zm13.402601 -9.796875l0 17.515625l2.65625 0q0.390625 0 0.5625 0.140625q0.171875 0.15625 0.171875 0.40625q0 0.25 -0.171875 0.390625q-0.171875 0.15625 -0.5625 0.15625l-3.749998 0l0 -19.703125l3.749998 0q0.390625 0 0.5625 0.15625q0.171875 0.15625 0.171875 0.390625q0 0.234375 -0.171875 0.390625q-0.171875 0.15625 -0.5625 0.15625l-2.65625 0zm20.465103 5.71875l0 2.703125q0 3.53125 -1.671875 5.59375q-1.328125 1.609375 -3.328125 1.609375q-0.96875 0 -1.828125 -0.390625q-0.84375 -0.375 -1.4375 -1.0625q-0.375 -0.4375 -0.828125 -1.375q-0.453125 -0.953125 -0.640625 -1.75q-0.296875 -1.125 -0.296875 -2.625l0 -2.703125q0 -3.546875 1.671875 -5.59375q1.3125 -1.609375 3.328125 -1.609375q0.96875 0 1.8125 0.390625q0.84375 0.375 1.453125 1.0625q0.390625 0.4375 0.828125 1.390625q0.4375 0.953125 0.65625 1.734375q0.28125 1.109375 0.28125 2.625zm-1.09375 0.140625q0 -1.546875 -0.4375 -2.875q-0.4375 -1.34375 -0.984375 -2.125q-0.328125 -0.46875 -0.84375 -0.78125q-0.734375 -0.46875 -1.671875 -0.46875q-1.828125 0 -2.875 1.875q-1.03125 1.875 -1.03125 4.375l0 2.40625q0 1.546875 0.4375 2.890625q0.4375 1.34375 0.984375 2.140625q0.3125 0.4375 0.84375 0.765625q0.734375 0.46875 1.671875 0.46875q1.828125 0 2.859375 -1.875q1.046875 -1.890625 1.046875 -4.390625l0 -2.40625zm11.558853 11.65625l0 -17.515625l-2.640625 0q-0.390625 0 -0.5625 -0.15625q-0.171875 -0.15625 -0.171875 -0.390625q0 -0.234375 0.171875 -0.390625q0.171875 -0.15625 0.5625 -0.15625l3.7500038 0l0 19.703125l-3.7500038 0q-0.390625 0 -0.5625 -0.15625q-0.171875 -0.140625 -0.171875 -0.390625q0 -0.234375 0.171875 -0.390625q0.171875 -0.15625 0.5625 -0.15625l2.640625 0z" fill-rule="nonzero"/><path fill="#000000" fill-opacity="0.0" d="m573.45264 67.16599l90.96063 0l0 41.66929l-90.96063 0z" fill-rule="evenodd"/><path fill="#000000" d="m593.59326 96.76599l0 -1.578125q-2.375 2.0 -5.09375 2.0q-1.953125 0 -3.0625 -0.984375q-1.109375 -1.0 -1.109375 -2.4375q0 -1.59375 1.453125 -2.78125q1.46875 -1.1875 4.265625 -1.1875q0.75 0 1.625 0.109375q0.890625 0.09375 1.921875 0.296875l0 -1.765625q0 -0.90625 -0.84375 -1.5625q-0.828125 -0.671875 -2.484375 -0.671875q-1.28125 0 -3.578125 0.75q-0.421875 0.125 -0.53125 0.125q-0.21875 0 -0.375 -0.15625q-0.140625 -0.15625 -0.140625 -0.390625q0 -0.21875 0.125 -0.34375q0.1875 -0.203125 1.484375 -0.53125q2.015625 -0.546875 3.0625 -0.546875q2.078125 0 3.234375 1.015625q1.15625 1.015625 1.15625 2.3125l0 7.234375l1.453125 0q0.40625 0 0.578125 0.15625q0.171875 0.140625 0.171875 0.390625q0 0.234375 -0.171875 0.390625q-0.171875 0.15625 -0.578125 0.15625l-2.5625 0zm0 -5.4375q-0.765625 -0.21875 -1.625 -0.328125q-0.859375 -0.109375 -1.8125 -0.109375q-2.375 0 -3.71875 1.03125q-1.015625 0.765625 -1.015625 1.84375q0 0.984375 0.765625 1.671875q0.78125 0.671875 2.265625 0.671875q1.421875 0 2.640625 -0.5625q1.21875 -0.578125 2.5 -1.8125l0 -2.40625zm13.402588 -9.796875l0 17.515625l2.65625 0q0.390625 0 0.5625 0.140625q0.171875 0.15625 0.171875 0.40625q0 0.25 -0.171875 0.390625q-0.171875 0.15625 -0.5625 0.15625l-3.75 0l0 -19.703125l3.75 0q0.390625 0 0.5625 0.15625q0.171875 0.15625 0.171875 0.390625q0 0.234375 -0.171875 0.390625q-0.171875 0.15625 -0.5625 0.15625l-2.65625 0zm19.933899 6.0q-0.84375 1.484375 -2.015625 2.25q-1.15625 0.75 -2.390625 0.75q-1.125 0 -2.1875 -0.640625q-1.0625 -0.65625 -1.6875 -1.90625q-0.625 -1.265625 -0.625 -2.640625q0 -2.015625 1.234375 -3.65625q1.25 -1.640625 3.328125 -1.640625q1.484375 0 2.703125 0.921875q1.234375 0.921875 1.90625 2.671875q0.875 2.25 0.875 5.234375q0 2.3125 -0.734375 3.859375q-0.5 1.03125 -1.453125 2.015625q-0.953125 0.96875 -2.15625 1.59375q-1.640625 0.8125 -3.40625 0.8125q-1.171875 0 -1.921875 -0.4375q-0.328125 -0.21875 -0.328125 -0.53125q0 -0.21875 0.15625 -0.359375q0.15625 -0.15625 0.375 -0.15625q0.15625 0 0.453125 0.140625q0.5 0.25 1.171875 0.25q2.765625 0 4.75 -2.0q2.0 -2.0 2.0 -5.0q0 -0.546875 -0.046875 -1.53125zm-0.203125 -1.828125q-0.703125 -2.640625 -1.71875 -3.59375q-1.015625 -0.96875 -2.390625 -0.96875q-1.390625 0 -2.453125 1.171875q-1.046875 1.171875 -1.046875 3.015625q0 1.78125 1.046875 2.953125q1.0625 1.15625 2.390625 1.15625q0.765625 0 1.515625 -0.40625q0.75 -0.421875 1.40625 -1.265625q0.4375 -0.546875 1.25 -2.0625zm11.199463 13.34375l0 -17.515625l-2.640625 0q-0.390625 0 -0.5625 -0.15625q-0.171875 -0.15625 -0.171875 -0.390625q0 -0.234375 0.171875 -0.390625q0.171875 -0.15625 0.5625 -0.15625l3.75 0l0 19.703125l-3.75 0q-0.390625 0 -0.5625 -0.15625q-0.171875 -0.140625 -0.171875 -0.390625q0 -0.234375 0.171875 -0.390625q0.171875 -0.15625 0.5625 -0.15625l2.640625 0z" fill-rule="nonzero"/></g></svg>