<svg version="1.1" viewBox="0.0 0.0 282.8556430446194 126.22834645669292" fill="none" stroke="none" stroke-linecap="square" stroke-miterlimit="10" xmlns:xlink="http://www.w3.org/1999/xlink" xmlns="http://www.w3.org/2000/svg"><clipPath id="p.0"><path d="m0 0l282.85565 0l0 126.22835l-282.85565 0l0 -126.22835z" clip-rule="nonzero"/></clipPath><g clip-path="url(#p.0)"><path fill="#000000" fill-opacity="0.0" d="m0 0l282.85565 0l0 126.22835l-282.85565 0z" fill-rule="evenodd"/><path stroke="#000000" stroke-width="1.3333333333333333" stroke-linecap="butt" d="m0.6771653 52.33996l0 72.53543" fill-rule="nonzero"/><path stroke="#000000" stroke-width="1.3333333333333333" stroke-linecap="butt" d="m40.677166 52.33996l0 72.53543" fill-rule="nonzero"/><path stroke="#000000" stroke-width="1.3333333333333333" stroke-linecap="butt" d="m80.67716 52.33996l0 72.53543" fill-rule="nonzero"/><path stroke="#000000" stroke-width="1.3333333333333333" stroke-linecap="butt" d="m120.67716 52.33996l0 72.53543" fill-rule="nonzero"/><path stroke="#000000" stroke-width="1.3333333333333333" stroke-linecap="butt" d="m160.34383 52.33996l0 72.53543" fill-rule="nonzero"/><path stroke="#000000" stroke-width="1.3333333333333333" stroke-linecap="butt" d="m200.34383 52.33996l0 72.53543" fill-rule="nonzero"/><path stroke="#000000" stroke-width="1.3333333333333333" stroke-linecap="butt" d="m240.34383 52.33996l0 72.53543" fill-rule="nonzero"/><path stroke="#000000" stroke-width="1.3333333333333333" stroke-linecap="butt" d="m280.34384 52.33996l0 72.53543" fill-rule="nonzero"/><path stroke="#000000" stroke-width="1.3333333333333333" stroke-linecap="butt" d="m0.010498688 53.006622l281.0 0" fill-rule="nonzero"/><path stroke="#000000" stroke-width="1.3333333333333333" stroke-linecap="butt" d="m0.010498688 88.60767l281.0 0" fill-rule="nonzero"/><path stroke="#000000" stroke-width="1.3333333333333333" stroke-linecap="butt" d="m0.010498688 124.208725l281.0 0" fill-rule="nonzero"/><path fill="#000000" d="m13.145915 62.67412l0 6.984379q1.15625 -1.28125 1.828125 -1.640625q0.6875 -0.359375 1.359376 -0.359375q0.8125 0 1.390625 0.453125q0.59375 0.453125 0.875 1.40625q0.1875 0.671875 0.1875 2.4375l0 3.375q0 0.90625 0.15625 1.234375q0.09375 0.25 0.34375 0.40625q0.25 0.140625 0.921875 0.140625l0 0.375l-4.687501 0l0 -0.375l0.21875 0q0.67187595 0 0.92187595 -0.203125q0.265625 -0.203125 0.375 -0.59375q0.03125 -0.171875 0.03125 -0.984375l0 -3.375q0 -1.5625 -0.171875 -2.046875q-0.15625 -0.5 -0.515625 -0.734375q-0.34375 -0.25 -0.84375095 -0.25q-0.515625 0 -1.078125 0.28125q-0.546875 0.265625 -1.3125 1.078125l0 5.046875q0 0.984375 0.109375 1.21875q0.109375 0.234375 0.40625 0.40625q0.296875 0.15625 1.03125 0.15625l0 0.375l-4.734375 0l0 -0.375q0.640625 0 1.0 -0.203125q0.203125 -0.09375 0.328125 -0.390625q0.125 -0.296875 0.125 -1.1875l0 -8.625q0 -1.640625 -0.078125 -2.015625q-0.078125 -0.375 -0.234375 -0.5q-0.15625 -0.140625 -0.4375 -0.140625q-0.21875 0 -0.703125 0.15625l-0.140625 -0.3593788l2.84375 -1.171875l0.484375 0z" fill-rule="nonzero"/><path fill="#000000" d="m51.94279 71.5335q0 2.125 1.03125 3.34375q1.046875 1.203125 2.453125 1.203125q0.9375 0 1.625 -0.515625q0.703125 -0.515625 1.171875 -1.765625l0.3125 0.203125q-0.21875 1.4375 -1.265625 2.609375q-1.046875 1.171875 -2.640625 1.171875q-1.71875 0 -2.9375 -1.34375q-1.21875 -1.34375 -1.21875 -3.59375q0 -2.453125 1.25 -3.8125q1.25 -1.375 3.15625 -1.375q1.59375 0 2.625 1.0625q1.03125 1.046875 1.03125 2.8125l-6.59375 0zm0 -0.59375l4.421875 0q-0.046875 -0.921875 -0.21875 -1.296875q-0.265625 -0.578125 -0.78125 -0.90625q-0.515625 -0.34375 -1.078125 -0.34375q-0.859375 0 -1.546875 0.671875q-0.671875 0.671875 -0.796875 1.875z" fill-rule="nonzero"/><path fill="#000000" d="m93.63029 62.67412l0 12.656254q0 0.890625 0.125 1.1875q0.125 0.296875 0.390625 0.453125q0.28125 0.140625 1.015625 0.140625l0 0.375l-4.671875 0l0 -0.375q0.65625 0 0.890625 -0.125q0.25 -0.140625 0.375 -0.453125q0.140625 -0.3125 0.140625 -1.203125l0 -8.65625q0 -1.625 -0.078125 -1.984375q-0.0625 -0.375 -0.234375 -0.5q-0.15625 -0.140625 -0.40625 -0.140625q-0.265625 0 -0.6875 0.15625l-0.171875 -0.3593788l2.84375 -1.171875l0.46875 0z" fill-rule="nonzero"/><path fill="#000000" d="m133.6303 62.67412l0 12.656254q0 0.890625 0.125 1.1875q0.125 0.296875 0.390625 0.453125q0.28125 0.140625 1.015625 0.140625l0 0.375l-4.671875 0l0 -0.375q0.65625 0 0.890625 -0.125q0.25 -0.140625 0.375 -0.453125q0.140625 -0.3125 0.140625 -1.203125l0 -8.65625q0 -1.625 -0.078125 -1.984375q-0.0625 -0.375 -0.234375 -0.5q-0.15625 -0.140625 -0.40625 -0.140625q-0.265625 0 -0.6875 0.15625l-0.171875 -0.3593788l2.84375 -1.171875l0.46875 0z" fill-rule="nonzero"/><path fill="#000000" d="m174.67195 67.6585q2.171875 0 3.484375 1.65625q1.109375 1.40625 1.109375 3.21875q0 1.28125 -0.609375 2.59375q-0.609375 1.3125 -1.6875 1.984375q-1.078125 0.671875 -2.40625 0.671875q-2.15625 0 -3.421875 -1.71875q-1.078125 -1.453125 -1.078125 -3.25q0 -1.3125 0.640625 -2.609375q0.65625 -1.296875 1.71875 -1.921875q1.0625 -0.625 2.25 -0.625zm-0.3125 0.6875q-0.5625 0 -1.125 0.328125q-0.546875 0.328125 -0.890625 1.15625q-0.34375 0.8125 -0.34375 2.109375q0 2.078125 0.828125 3.59375q0.828125 1.5 2.1875 1.5q1.0 0 1.65625 -0.828125q0.65625 -0.828125 0.65625 -2.859375q0 -2.546875 -1.09375 -4.0q-0.734375 -1.0 -1.875 -1.0z" fill-rule="nonzero"/><path fill="#000000" d="m210.2032 62.67412l5.109375 15.109379l-0.828125 0l-5.109375 -15.109379l0.828125 0zm5.831894 7.828129q0 -2.40625 0.734375 -4.140625q0.734375 -1.75 1.9375 -2.6093788q0.9375 -0.671875 1.9375 -0.671875q1.625 0 2.921875 1.6562538q1.609375 2.046875 1.609375 5.546875q0 2.46875 -0.71875 4.1875q-0.703125 1.71875 -1.796875 2.5q-1.09375 0.765625 -2.125 0.765625q-2.015625 0 -3.359375 -2.390625q-1.140625 -2.0 -1.140625 -4.84375zm2.046875 0.265625q0 2.921875 0.71875 4.765625q0.59375 1.546875 1.765625 1.546875q0.5625 0 1.171875 -0.5q0.609375 -0.515625 0.921875 -1.703125q0.46875 -1.78125 0.46875 -5.046875q0 -2.421875 -0.5 -4.03125q-0.375 -1.1875 -0.96875 -1.6875q-0.421875 -0.3437538 -1.03125 -0.3437538q-0.703125 0 -1.25 0.6250038q-0.75 0.875 -1.03125 2.734375q-0.265625 1.84375 -0.265625 3.640625z" fill-rule="nonzero"/><path fill="#000000" d="m9.81779 103.540794l4.0 0l0 0.390625q-0.5625 0.046875 -0.734375 0.203125q-0.171875 0.15625 -0.171875 0.4375q0 0.328125 0.1875 0.78125l2.03125 5.5l2.062501 -4.46875l-0.546875 -1.40625q-0.25 -0.625 -0.65625095 -0.875q-0.234375 -0.140625 -0.859375 -0.171875l0 -0.390625l4.546876 0l0 0.390625q-0.75 0.03125 -1.0625 0.265625q-0.203125 0.171875 -0.203125 0.53125q0 0.21875 0.078125 0.4375l2.15625 5.46875l2.015625 -5.28125q0.203125 -0.5625 0.203125 -0.890625q0 -0.203125 -0.203125 -0.359375q-0.203125 -0.15625 -0.796875 -0.171875l0 -0.390625l3.015625 0l0 0.390625q-0.90625 0.140625 -1.328125 1.234375l-3.1875 8.21875l-0.421875 0l-2.390625 -6.09375l-2.781251 6.09375l-0.390625 0l-3.0625 -8.03125q-0.296875 -0.75 -0.59375 -1.015625q-0.28125 -0.265625 -0.90625 -0.40625l0 -0.390625z" fill-rule="nonzero"/><path fill="#000000" d="m55.00529 103.259544q2.171875 0 3.484375 1.65625q1.109375 1.40625 1.109375 3.21875q0 1.28125 -0.609375 2.59375q-0.609375 1.3125 -1.6875 1.984375q-1.078125 0.671875 -2.40625 0.671875q-2.15625 0 -3.421875 -1.71875q-1.078125 -1.453125 -1.078125 -3.25q0 -1.3125 0.640625 -2.609375q0.65625 -1.296875 1.71875 -1.921875q1.0625 -0.625 2.25 -0.625zm-0.3125 0.6875q-0.5625 0 -1.125 0.328125q-0.546875 0.328125 -0.890625 1.15625q-0.34375 0.8125 -0.34375 2.109375q0 2.078125 0.828125 3.59375q0.828125 1.5 2.1875 1.5q1.0 0 1.65625 -0.828125q0.65625 -0.828125 0.65625 -2.859375q0 -2.546875 -1.09375 -4.0q-0.734375 -1.0 -1.875 -1.0z" fill-rule="nonzero"/><path fill="#000000" d="m93.13029 103.259544l0 2.15625q1.203125 -2.15625 2.46875 -2.15625q0.5625 0 0.9375 0.359375q0.375 0.34375 0.375 0.796875q0 0.40625 -0.265625 0.6875q-0.265625 0.28125 -0.640625 0.28125q-0.375 0 -0.828125 -0.359375q-0.453125 -0.359375 -0.671875 -0.359375q-0.1875 0 -0.40625 0.21875q-0.46875 0.421875 -0.96875 1.40625l0 4.5625q0 0.796875 0.203125 1.203125q0.140625 0.28125 0.484375 0.46875q0.34375 0.1875 0.984375 0.1875l0 0.375l-4.890625 0l0 -0.375q0.734375 0 1.09375 -0.234375q0.25 -0.15625 0.359375 -0.53125q0.046875 -0.171875 0.046875 -1.0l0 -3.703125q0 -1.671875 -0.0625 -1.984375q-0.0625 -0.3125 -0.25 -0.453125q-0.1875 -0.15625 -0.453125 -0.15625q-0.328125 0 -0.734375 0.15625l-0.09375 -0.375l2.875 -1.171875l0.4375 0z" fill-rule="nonzero"/><path fill="#000000" d="m133.6303 98.27517l0 12.65625q0 0.890625 0.125 1.1875q0.125 0.296875 0.390625 0.453125q0.28125 0.140625 1.015625 0.140625l0 0.375l-4.671875 0l0 -0.375q0.65625 0 0.890625 -0.125q0.25 -0.140625 0.375 -0.453125q0.140625 -0.3125 0.140625 -1.203125l0 -8.65625q0 -1.625 -0.078125 -1.984375q-0.0625 -0.375 -0.234375 -0.5q-0.15625 -0.140625 -0.40625 -0.140625q-0.265625 0 -0.6875 0.15625l-0.171875 -0.359375l2.84375 -1.171875l0.46875 0z" fill-rule="nonzero"/><path fill="#000000" d="m176.75008 112.009544q-0.703125 0.734375 -1.375 1.0625q-0.65625 0.3125 -1.421875 0.3125q-1.5625 0 -2.734375 -1.3125q-1.171875 -1.3125 -1.171875 -3.359375q0 -2.046875 1.296875 -3.75q1.296875 -1.703125 3.328125 -1.703125q1.25 0 2.078125 0.796875l0 -1.75q0 -1.640625 -0.078125 -2.015625q-0.078125 -0.375 -0.25 -0.5q-0.15625 -0.140625 -0.40625 -0.140625q-0.28125 0 -0.71875 0.15625l-0.140625 -0.359375l2.84375 -1.171875l0.46875 0l0 11.03125q0 1.671875 0.078125 2.046875q0.078125 0.375 0.25 0.515625q0.171875 0.140625 0.40625 0.140625q0.28125 0 0.75 -0.171875l0.109375 0.359375l-2.828125 1.1875l-0.484375 0l0 -1.375zm0 -0.71875l0 -4.921875q-0.0625 -0.703125 -0.375 -1.28125q-0.3125 -0.59375 -0.828125 -0.890625q-0.515625 -0.296875 -1.0 -0.296875q-0.921875 0 -1.640625 0.828125q-0.953125 1.078125 -0.953125 3.15625q0 2.109375 0.921875 3.234375q0.921875 1.109375 2.046875 1.109375q0.9375 0 1.828125 -0.9375z" fill-rule="nonzero"/><path fill="#000000" d="m213.09383 109.353294l-0.390625 0l-0.921875 -8.4375q-0.0625 -0.546875 -0.0625 -0.828125q0 -0.65625 0.34375 -1.046875q0.359375 -0.390625 0.84375 -0.390625q0.484375 0 0.828125 0.390625q0.34375 0.390625 0.34375 1.171875q0 0.25 -0.046875 0.703125l-0.9375 8.4375zm-0.203125 1.71875q0.46875 0 0.8125 0.34375q0.34375 0.34375 0.34375 0.8125q0 0.46875 -0.34375 0.8125q-0.34375 0.34375 -0.8125 0.34375q-0.484375 0 -0.828125 -0.34375q-0.328125 -0.34375 -0.328125 -0.8125q0 -0.46875 0.328125 -0.8125q0.34375 -0.34375 0.828125 -0.34375z" fill-rule="nonzero"/><path fill="#000000" d="m250.2032 98.27517l5.109375 15.109375l-0.828125 0l-5.109375 -15.109375l0.828125 0zm5.831894 7.828125q0 -2.40625 0.734375 -4.140625q0.734375 -1.75 1.9375 -2.609375q0.9375 -0.671875 1.9375 -0.671875q1.625 0 2.921875 1.65625q1.609375 2.046875 1.609375 5.546875q0 2.46875 -0.71875 4.1875q-0.703125 1.71875 -1.796875 2.5q-1.09375 0.765625 -2.125 0.765625q-2.015625 0 -3.359375 -2.390625q-1.140625 -2.0 -1.140625 -4.84375zm2.046875 0.265625q0 2.921875 0.71875 4.765625q0.59375 1.546875 1.765625 1.546875q0.5625 0 1.171875 -0.5q0.609375 -0.515625 0.921875 -1.703125q0.46875 -1.78125 0.46875 -5.046875q0 -2.421875 -0.5 -4.03125q-0.375 -1.1875 -0.96875 -1.6875q-0.421875 -0.34375 -1.03125 -0.34375q-0.703125 0 -1.25 0.625q-0.75 0.875 -1.03125 2.734375q-0.265625 1.84375 -0.265625 3.640625z" fill-rule="nonzero"/><path fill="#000000" fill-opacity="0.0" d="m256.7139 28.860893l0.3779602 23.811024" fill-rule="evenodd"/><path stroke="#000000" stroke-width="1.0" stroke-linejoin="round" stroke-linecap="butt" d="m256.7139 28.860893l0.28274536 17.811775" fill-rule="evenodd"/><path fill="#000000" stroke="#000000" stroke-width="1.0" stroke-linecap="butt" d="m255.34511 46.698887l1.7235565 4.5113106l1.5794983 -4.56374z" fill-rule="evenodd"/><path fill="#000000" fill-opacity="0.0" d="m202.25722 1.7742782l108.913376 0l0 27.086615l-108.913376 0z" fill-rule="evenodd"/><path fill="#000000" d="m230.93605 15.350527l3.484375 0l0 0.34375q-0.46875 0.03125 -0.625 0.171875q-0.15625 0.125 -0.15625 0.390625q0 0.28125 0.15625 0.671875l1.78125 4.8125l1.796875 -3.90625l-0.46875 -1.234375q-0.21875 -0.546875 -0.578125 -0.765625q-0.203125 -0.125 -0.75 -0.140625l0 -0.34375l3.984375 0l0 0.34375q-0.65625 0.015625 -0.9375 0.234375q-0.171875 0.140625 -0.171875 0.453125q0 0.1875 0.0625 0.375l1.890625 4.796875l1.765625 -4.625q0.1875 -0.484375 0.1875 -0.78125q0 -0.171875 -0.1875 -0.296875q-0.171875 -0.140625 -0.6875 -0.15625l0 -0.34375l2.625 0l0 0.34375q-0.796875 0.109375 -1.15625 1.0625l-2.796875 7.1875l-0.375 0l-2.078125 -5.328125l-2.4375 5.328125l-0.328125 0l-2.6875 -7.015625q-0.265625 -0.65625 -0.515625 -0.890625q-0.25 -0.234375 -0.796875 -0.34375l0 -0.34375zm18.660446 7.140625q-1.28125 1.0 -1.609375 1.15625q-0.5 0.21875 -1.046875 0.21875q-0.875 0 -1.4375 -0.59375q-0.546875 -0.59375 -0.546875 -1.5625q0 -0.609375 0.265625 -1.046875q0.375 -0.625 1.296875 -1.171875q0.921875 -0.546875 3.078125 -1.328125l0 -0.328125q0 -1.25 -0.40625 -1.703125q-0.390625 -0.46875 -1.140625 -0.46875q-0.578125 0 -0.921875 0.3125q-0.34375 0.296875 -0.34375 0.703125l0.015625 0.53125q0 0.421875 -0.21875 0.65625q-0.203125 0.21875 -0.546875 0.21875q-0.34375 0 -0.5625 -0.234375q-0.203125 -0.234375 -0.203125 -0.65625q0 -0.78125 0.796875 -1.4375q0.8125 -0.65625 2.25 -0.65625q1.109375 0 1.828125 0.375q0.53125 0.28125 0.796875 0.890625q0.15625 0.390625 0.15625 1.59375l0 2.84375q0 1.1875 0.046875 1.453125q0.046875 0.265625 0.140625 0.359375q0.109375 0.09375 0.25 0.09375q0.140625 0 0.25 -0.0625q0.203125 -0.125 0.75 -0.671875l0 0.515625q-1.03125 1.359375 -1.953125 1.359375q-0.453125 0 -0.71875 -0.296875q-0.265625 -0.3125 -0.265625 -1.0625zm0 -0.59375l0 -3.171875q-1.375 0.546875 -1.78125 0.765625q-0.71875 0.40625 -1.03125 0.84375q-0.296875 0.4375 -0.296875 0.953125q0 0.65625 0.390625 1.09375q0.390625 0.421875 0.890625 0.421875q0.703125 0 1.828125 -0.90625zm8.936798 -6.796875l0 2.84375l-0.296875 0q-0.34375 -1.34375 -0.890625 -1.8125q-0.53125 -0.484375 -1.3750153 -0.484375q-0.640625 0 -1.03125 0.34375q-0.390625 0.328125 -0.390625 0.734375q0 0.515625 0.296875 0.875q0.28125 0.375 1.140625 0.796875l1.3281403 0.640625q1.859375 0.90625 1.859375 2.375q0 1.140625 -0.875 1.84375q-0.859375 0.6875 -1.921875 0.6875q-0.76564026 0 -1.7500153 -0.265625q-0.296875 -0.09375 -0.484375 -0.09375q-0.21875 0 -0.328125 0.234375l-0.296875 0l0 -2.96875l0.296875 0q0.25 1.265625 0.96875 1.921875q0.71875 0.640625 1.6093903 0.640625q0.640625 0 1.03125 -0.359375q0.390625 -0.375 0.390625 -0.90625q0 -0.625 -0.4375 -1.046875q-0.4375 -0.4375 -1.7656403 -1.09375q-1.3125 -0.65625 -1.71875 -1.171875q-0.421875 -0.53125 -0.421875 -1.3125q0 -1.03125 0.703125 -1.71875q0.71875 -0.703125 1.8281403 -0.703125q0.5 0 1.203125 0.21875q0.453125 0.125 0.609375 0.125q0.15625 0 0.234375 -0.0625q0.078125 -0.0625 0.1875 -0.28125l0.296875 0zm4.291504 -2.5l0 2.75l1.953125 0l0 0.640625l-1.953125 0l0 5.40625q0 0.8125 0.234375 1.09375q0.234375 0.28125 0.59375 0.28125q0.3125 0 0.59375 -0.1875q0.28125 -0.1875 0.4375 -0.546875l0.34375 0q-0.3125 0.890625 -0.90625 1.34375q-0.578125 0.453125 -1.1875 0.453125q-0.421875 0 -0.828125 -0.234375q-0.390625 -0.234375 -0.59375 -0.65625q-0.1875 -0.4375 -0.1875 -1.34375l0 -5.609375l-1.3125 0l0 -0.296875q0.5 -0.203125 1.015625 -0.6875q0.53125 -0.484375 0.9375 -1.125q0.203125 -0.359375 0.578125 -1.28125l0.28125 0zm4.167694 5.890625q0 1.859375 0.90625 2.921875q0.90625 1.046875 2.140625 1.046875q0.8125 0 1.421875 -0.4375q0.609375 -0.453125 1.015625 -1.546875l0.28125 0.171875q-0.1875 1.25 -1.109375 2.28125q-0.921875 1.015625 -2.296875 1.015625q-1.515625 0 -2.59375 -1.171875q-1.0625 -1.171875 -1.0625 -3.140625q0 -2.140625 1.09375 -3.328125q1.109375 -1.203125 2.765625 -1.203125q1.40625 0 2.296875 0.921875q0.90625 0.921875 0.90625 2.46875l-5.765625 0zm0 -0.53125l3.859375 0q-0.046875 -0.796875 -0.1875 -1.125q-0.234375 -0.515625 -0.6875 -0.796875q-0.4375 -0.296875 -0.9375 -0.296875q-0.75 0 -1.34375 0.59375q-0.59375 0.578125 -0.703125 1.625zm12.780518 4.796875q-0.625 0.640625 -1.203125 0.921875q-0.578125 0.265625 -1.25 0.265625q-1.375 0 -2.390625 -1.140625q-1.015625 -1.140625 -1.015625 -2.9375q0 -1.796875 1.125 -3.28125q1.125 -1.484375 2.90625 -1.484375q1.09375 0 1.828125 0.703125l0 -1.546875q0 -1.4375 -0.078125 -1.765625q-0.0625 -0.328125 -0.21875 -0.4375q-0.140625 -0.125 -0.359375 -0.125q-0.234375 0 -0.625 0.15625l-0.125 -0.328125l2.484375 -1.015625l0.421875 0l0 9.640625q0 1.46875 0.0625 1.796875q0.0625 0.328125 0.21875 0.453125q0.15625 0.125 0.359375 0.125q0.234375 0 0.65625 -0.15625l0.09375 0.3125l-2.484375 1.03125l-0.40625 0l0 -1.1875zm0 -0.640625l0 -4.296875q-0.0625 -0.625 -0.34375 -1.125q-0.265625 -0.515625 -0.71875 -0.765625q-0.453125 -0.265625 -0.875 -0.265625q-0.796875 0 -1.4375 0.71875q-0.828125 0.9375 -0.828125 2.765625q0 1.84375 0.796875 2.828125q0.8125 0.96875 1.796875 0.96875q0.828125 0 1.609375 -0.828125z" fill-rule="nonzero"/></g></svg>