<svg version="1.1" viewBox="0.0 0.0 288.0 164.0" fill="none" stroke="none" stroke-linecap="square" stroke-miterlimit="10" xmlns:xlink="http://www.w3.org/1999/xlink" xmlns="http://www.w3.org/2000/svg"><clipPath id="p.0"><path d="m0 0l288.0 0l0 164.0l-288.0 0l0 -164.0z" clip-rule="nonzero"/></clipPath><g clip-path="url(#p.0)"><path fill="#000000" fill-opacity="0.0" d="m0 0l288.0 0l0 164.0l-288.0 0z" fill-rule="evenodd"/><path stroke="#000000" stroke-width="1.3333333333333333" stroke-linecap="butt" d="m122.24549 36.40945l0 42.934383" fill-rule="nonzero"/><path stroke="#000000" stroke-width="1.3333333333333333" stroke-linecap="butt" d="m162.44496 36.40945l0 42.934383" fill-rule="nonzero"/><path stroke="#000000" stroke-width="1.3333333333333333" stroke-linecap="butt" d="m202.64444 36.40945l0 42.934383" fill-rule="nonzero"/><path stroke="#000000" stroke-width="1.3333333333333333" stroke-linecap="butt" d="m242.84392 36.40945l0 42.934383" fill-rule="nonzero"/><path stroke="#000000" stroke-width="1.3333333333333333" stroke-linecap="butt" d="m283.0434 36.40945l0 42.934383" fill-rule="nonzero"/><path stroke="#000000" stroke-width="1.3333333333333333" stroke-linecap="butt" d="m121.57882 37.076115l162.13123 0" fill-rule="nonzero"/><path stroke="#000000" stroke-width="1.3333333333333333" stroke-linecap="butt" d="m121.57882 78.67716l162.13123 0" fill-rule="nonzero"/><path fill="#000000" d="m139.77673 50.113613l0 15.468754l3.75 0q0.390625 0 0.5625 0.15625q0.171875 0.140625 0.171875 0.390625q0 0.234375 -0.171875 0.390625q-0.171875 0.15625 -0.5625 0.15625l-8.578125 0q-0.390625 0 -0.5625 -0.15625q-0.171875 -0.15625 -0.171875 -0.390625q0 -0.25 0.171875 -0.390625q0.171875 -0.15625 0.5625 -0.15625l3.734375 0l0 -13.953129l-3.5625 1.125q-0.25 0.078125 -0.375 0.078125q-0.1875 0 -0.359375 -0.15625q-0.15625 -0.171875 -0.15625 -0.390625q0 -0.203125 0.125 -0.375q0.109375 -0.09375 0.4375 -0.21875l4.984375 -1.578125z" fill-rule="nonzero"/><path fill="#000000" d="m174.74184 65.58237l8.390625 0l0 -0.421875q0 -0.390625 0.15625 -0.5625q0.15625 -0.171875 0.40625 -0.171875q0.234375 0 0.390625 0.171875q0.15625 0.171875 0.15625 0.5625l0 1.515625l-10.578125 0l0 -1.609375q3.34375 -3.0000038 6.484375 -6.093754q1.46875 -1.453125 2.015625 -2.125q0.546875 -0.671875 0.75 -1.1875q0.203125 -0.515625 0.203125 -1.03125q0 -1.40625 -1.140625 -2.484375q-1.125 -1.09375 -2.71875 -1.09375q-1.4375 0 -2.546875 0.828125q-1.09375 0.8125 -1.421875 2.03125q-0.078125 0.3125 -0.203125 0.40625q-0.15625 0.125 -0.359375 0.125q-0.21875 0 -0.375 -0.140625q-0.140625 -0.15625 -0.140625 -0.375q0 -0.609375 0.671875 -1.671875q0.6875 -1.078125 1.890625 -1.6875q1.203125 -0.609375 2.46875 -0.609375q2.046875 0 3.515625 1.421875q1.46875 1.40625 1.46875 3.203125q0 0.75 -0.25 1.390625q-0.25 0.625 -0.84375 1.375q-0.578125 0.75 -2.125 2.265625q-3.84375 3.796875 -6.265625 5.890629l0 0.078125z" fill-rule="nonzero"/><path fill="#000000" d="m221.89444 57.78549q1.5 0.671875 2.296875 1.859375q0.796875 1.171875 0.796875 2.453125q0 1.9687538 -1.59375 3.4687538q-1.59375 1.5 -4.0 1.5q-1.390625 0 -2.90625 -0.59375q-1.515625 -0.609375 -2.109375 -1.234375q-0.203125 -0.203125 -0.203125 -0.4375q0 -0.203125 0.15625 -0.359375q0.15625 -0.15625 0.359375 -0.15625q0.203125 0 0.46875 0.1875q2.015625 1.5 4.265625 1.5q1.90625 0 3.1875 -1.1875q1.28125 -1.1875038 1.28125 -2.6562538q0 -0.96875 -0.640625 -1.90625q-0.625 -0.9375 -1.8125 -1.46875q-1.1875 -0.546875 -2.390625 -0.546875q-0.390625 0 -0.5625 -0.140625q-0.171875 -0.15625 -0.171875 -0.40625q0 -0.234375 0.15625 -0.390625q0.171875 -0.15625 0.5 -0.15625l0.9375 0.015625q1.46875 0 2.421875 -0.890625q0.96875 -0.90625 0.96875 -2.09375q0 -1.21875 -1.015625 -2.15625q-1.0 -0.9375 -2.609375 -0.9375q-1.140625 0 -2.09375 0.390625q-0.9375 0.390625 -1.515625 1.0625q-0.203125 0.265625 -0.3125 0.328125q-0.109375 0.046875 -0.25 0.046875q-0.234375 0 -0.390625 -0.140625q-0.15625 -0.15625 -0.15625 -0.359375q0 -0.53125 1.140625 -1.328125q1.578125 -1.09375 3.578125 -1.09375q2.0625 0 3.390625 1.25q1.328125 1.234375 1.328125 2.953125q0 1.09375 -0.640625 2.078125q-0.625 0.96875 -1.859375 1.546875z" fill-rule="nonzero"/><path fill="#000000" d="m261.87515 62.113613l-7.2499847 0l0 -1.265625l6.0781097 -10.5l2.28125 0l0 10.671875l0.90625 0q0.40625 0 0.578125 0.15625q0.171875 0.140625 0.171875 0.390625q0 0.234375 -0.171875 0.390625q-0.171875 0.15625 -0.578125 0.15625l-0.90625 0l0 3.4687538l0.90625 0q0.40625 0 0.578125 0.15625q0.171875 0.140625 0.171875 0.390625q0 0.234375 -0.171875 0.390625q-0.171875 0.15625 -0.578125 0.15625l-4.0625 0q-0.390625 0 -0.5625 -0.15625q-0.171875 -0.15625 -0.171875 -0.390625q0 -0.25 0.171875 -0.390625q0.171875 -0.15625 0.5625 -0.15625l2.046875 0l0 -3.4687538zm0 -1.09375l0 -9.578125l-0.5625 0l-5.5312347 9.578125l6.0937347 0z" fill-rule="nonzero"/><path fill="#000000" fill-opacity="0.0" d="m122.2494 -0.001312336l37.826775 0l0 38.48819l-37.826775 0z" fill-rule="evenodd"/><path fill="#000000" d="m141.28064 27.038687l0 -1.421875q-2.140625 1.8125 -4.578125 1.8125q-1.765625 0 -2.765625 -0.890625q-1.0 -0.90625 -1.0 -2.203125q0 -1.4375 1.3125 -2.5q1.3125 -1.0625 3.828125 -1.0625q0.6875 0 1.484375 0.09375q0.796875 0.078125 1.71875 0.265625l0 -1.59375q0 -0.8125 -0.75 -1.40625q-0.75 -0.59375 -2.25 -0.59375q-1.140625 0 -3.21875 0.65625q-0.375 0.125 -0.484375 0.125q-0.1875 0 -0.328125 -0.140625q-0.125 -0.140625 -0.125 -0.359375q0 -0.1875 0.109375 -0.3125q0.171875 -0.171875 1.328125 -0.484375q1.828125 -0.484375 2.765625 -0.484375q1.859375 0 2.90625 0.921875q1.046875 0.921875 1.046875 2.078125l0 6.515625l1.3125 0q0.359375 0 0.515625 0.140625q0.15625 0.125 0.15625 0.34375q0 0.21875 -0.15625 0.359375q-0.15625 0.140625 -0.515625 0.140625l-2.3125 0zm0 -4.90625q-0.6875 -0.1875 -1.46875 -0.28125q-0.765625 -0.09375 -1.625 -0.09375q-2.140625 0 -3.34375 0.921875q-0.921875 0.6875 -0.921875 1.65625q0 0.890625 0.6875 1.5q0.703125 0.609375 2.046875 0.609375q1.28125 0 2.375 -0.515625q1.09375 -0.515625 2.25 -1.625l0 -2.171875z" fill-rule="nonzero"/><path stroke="#000000" stroke-width="1.3333333333333333" stroke-linecap="butt" d="m122.249344 115.164085l0 42.93438" fill-rule="nonzero"/><path stroke="#000000" stroke-width="1.3333333333333333" stroke-linecap="butt" d="m162.44882 115.164085l0 42.93438" fill-rule="nonzero"/><path stroke="#000000" stroke-width="1.3333333333333333" stroke-linecap="butt" d="m202.6483 115.164085l0 42.93438" fill-rule="nonzero"/><path stroke="#000000" stroke-width="1.3333333333333333" stroke-linecap="butt" d="m121.58268 115.83075l81.73228 0" fill-rule="nonzero"/><path stroke="#000000" stroke-width="1.3333333333333333" stroke-linecap="butt" d="m121.58268 157.4318l81.73228 0" fill-rule="nonzero"/><path fill="#000000" fill-opacity="0.0" d="m205.91602 116.438324l37.826767 0l0 38.48819l-37.826767 0z" fill-rule="evenodd"/><path fill="#000000" d="m218.41602 128.77519l0 6.515625q1.78125 -2.3125 4.296875 -2.3125q2.15625 0 3.6875 1.5625q1.53125 1.5625 1.53125 3.84375q0 2.296875 -1.546875 3.890625q-1.546875 1.59375 -3.671875 1.59375q-2.578125 0 -4.296875 -2.328125l0 1.9375l-2.3125 0q-0.359375 0 -0.515625 -0.140625q-0.140625 -0.140625 -0.140625 -0.359375q0 -0.21875 0.140625 -0.34375q0.15625 -0.140625 0.515625 -0.140625l1.328125 0l0 -12.734375l-1.328125 0q-0.359375 0 -0.515625 -0.140625q-0.140625 -0.140625 -0.140625 -0.359375q0 -0.203125 0.140625 -0.34375q0.15625 -0.140625 0.515625 -0.140625l2.3125 0zm8.53125 9.65625q0 -1.875 -1.28125 -3.15625q-1.265625 -1.296875 -2.984375 -1.296875q-1.703125 0 -2.984375 1.296875q-1.28125 1.28125 -1.28125 3.15625q0 1.859375 1.28125 3.15625q1.28125 1.296875 2.984375 1.296875q1.71875 0 2.984375 -1.296875q1.28125 -1.296875 1.28125 -3.15625z" fill-rule="nonzero"/><path fill="#000000" fill-opacity="0.0" d="m142.1916 112.04199l0 -30.645668" fill-rule="evenodd"/><path stroke="#000000" stroke-width="1.0" stroke-linejoin="round" stroke-linecap="butt" d="m142.1916 112.04199l0 -24.645668" fill-rule="evenodd"/><path fill="#000000" stroke="#000000" stroke-width="1.0" stroke-linecap="butt" d="m143.84334 87.396324l-1.6517334 -4.5380936l-1.6517334 4.5380936z" fill-rule="evenodd"/><path stroke="#000000" stroke-width="1.3333333333333333" stroke-linecap="butt" d="m35.78478 114.47642l0 42.93438" fill-rule="nonzero"/><path stroke="#000000" stroke-width="1.3333333333333333" stroke-linecap="butt" d="m76.698166 114.47642l0 42.93438" fill-rule="nonzero"/><path stroke="#000000" stroke-width="1.3333333333333333" stroke-linecap="butt" d="m35.11811 115.14309l42.24672 0" fill-rule="nonzero"/><path stroke="#000000" stroke-width="1.3333333333333333" stroke-linecap="butt" d="m35.11811 156.74414l42.24672 0" fill-rule="nonzero"/><path fill="#000000" fill-opacity="0.0" d="m1.5433071 115.0105l37.82677 0l0 38.48819l-37.82677 0z" fill-rule="evenodd"/><path fill="#000000" d="m21.855806 132.89424l0 -0.328125q0 -0.359375 0.140625 -0.515625q0.140625 -0.15625 0.34375 -0.15625q0.234375 0 0.375 0.15625q0.140625 0.15625 0.140625 0.515625l0 2.234375q-0.015625 0.359375 -0.15625 0.515625q-0.125 0.140625 -0.359375 0.140625q-0.1875 0 -0.328125 -0.125q-0.140625 -0.140625 -0.15625 -0.453125q-0.078125 -0.828125 -1.109375 -1.578125q-1.015625 -0.75 -2.75 -0.75q-2.187499 0 -3.328124 1.375q-1.140625 1.359375 -1.140625 3.125q0 1.921875 1.25 3.171875q1.265624 1.234375 3.249999 1.234375q1.15625 0 2.34375 -0.421875q1.1875 -0.421875 2.15625 -1.359375q0.234375 -0.234375 0.421875 -0.234375q0.203125 0 0.328125 0.140625q0.140625 0.125 0.140625 0.328125q0 0.5 -1.171875 1.265625q-1.921875 1.265625 -4.265625 1.265625q-2.374999 0 -3.906249 -1.515625q-1.53125 -1.53125 -1.53125 -3.859375q0 -2.375 1.5625 -3.9375q1.578125 -1.578125 3.953124 -1.578125q2.265625 0 3.796875 1.34375z" fill-rule="nonzero"/><path stroke="#000000" stroke-width="1.3333333333333333" stroke-linecap="butt" d="m36.500084 36.40945l0 42.934383" fill-rule="nonzero"/><path stroke="#000000" stroke-width="1.3333333333333333" stroke-linecap="butt" d="m76.699554 36.40945l0 42.934383" fill-rule="nonzero"/><path stroke="#000000" stroke-width="1.3333333333333333" stroke-linecap="butt" d="m35.833416 37.076115l41.53281 0" fill-rule="nonzero"/><path stroke="#000000" stroke-width="1.3333333333333333" stroke-linecap="butt" d="m35.833416 78.67716l41.53281 0" fill-rule="nonzero"/><path fill="#000000" fill-opacity="0.0" d="m0 34.965878l40.913387 0l0 38.488194l-40.913387 0z" fill-rule="evenodd"/><path fill="#000000" d="m21.03125 47.302753l0 13.71875l1.3125 0q0.359375 0 0.5 0.140625q0.15625 0.125 0.15625 0.34375q0 0.21875 -0.15625 0.359375q-0.140625 0.140625 -0.5 0.140625l-2.3125 0l0 -1.953125q-1.71875 2.34375 -4.34375 2.34375q-1.34375 0 -2.578125 -0.703125q-1.21875 -0.71875 -1.921875 -2.03125q-0.703125 -1.3125 -0.703125 -2.703125q0 -1.40625 0.703125 -2.71875q0.703125 -1.3125 1.921875 -2.015625q1.234375 -0.71875 2.578125 -0.71875q2.578125 0 4.34375 2.34375l0 -5.5625l-1.3125 0q-0.359375 0 -0.515625 -0.140625q-0.15625 -0.140625 -0.15625 -0.359375q0 -0.203125 0.15625 -0.34375q0.15625 -0.140625 0.515625 -0.140625l2.3125 0zm-1.0 9.65625q0 -1.875 -1.265625 -3.15625q-1.265625 -1.296875 -3.015625 -1.296875q-1.75 0 -3.015625 1.296875q-1.265625 1.28125 -1.265625 3.15625q0 1.859375 1.265625 3.15625q1.265625 1.296875 3.015625 1.296875q1.75 0 3.015625 -1.296875q1.265625 -1.296875 1.265625 -3.15625z" fill-rule="nonzero"/><path fill="#000000" fill-opacity="0.0" d="m83.30708 59.774277l36.125984 0" fill-rule="evenodd"/><path stroke="#000000" stroke-width="1.0" stroke-linejoin="round" stroke-linecap="butt" d="m83.30708 59.774277l30.125984 0" fill-rule="evenodd"/><path fill="#000000" stroke="#000000" stroke-width="1.0" stroke-linecap="butt" d="m113.43307 61.42601l4.538101 -1.6517334l-4.538101 -1.6517296z" fill-rule="evenodd"/><path fill="#000000" fill-opacity="0.0" d="m81.41076 135.94489l36.125984 0" fill-rule="evenodd"/><path stroke="#000000" stroke-width="1.0" stroke-linejoin="round" stroke-linecap="butt" d="m81.41076 135.94489l30.125984 0" fill-rule="evenodd"/><path fill="#000000" stroke="#000000" stroke-width="1.0" stroke-linecap="butt" d="m111.53674 137.59662l4.538101 -1.6517334l-4.538101 -1.6517334z" fill-rule="evenodd"/><path fill="#000000" fill-opacity="0.0" d="m183.0 112.0l38.992126 -30.015747" fill-rule="evenodd"/><path stroke="#000000" stroke-width="1.0" stroke-linejoin="round" stroke-linecap="butt" d="m183.0 112.0l34.23767 -26.355812" fill-rule="evenodd"/><path fill="#000000" stroke="#000000" stroke-width="1.0" stroke-linecap="butt" d="m218.24521 86.95303l2.5884857 -4.077034l-4.6035614 1.4593353z" fill-rule="evenodd"/></g></svg>