<svg version="1.1" viewBox="0.0 0.0 461.0 197.0" fill="none" stroke="none" stroke-linecap="square" stroke-miterlimit="10" xmlns:xlink="http://www.w3.org/1999/xlink" xmlns="http://www.w3.org/2000/svg"><clipPath id="p.0"><path d="m0 0l461.0 0l0 197.0l-461.0 0l0 -197.0z" clip-rule="nonzero"/></clipPath><g clip-path="url(#p.0)"><path fill="#000000" fill-opacity="0.0" d="m0 0l461.0 0l0 197.0l-461.0 0z" fill-rule="evenodd"/><path stroke="#000000" stroke-width="1.3333333333333333" stroke-linecap="butt" d="m7.0118113 40.651554l0 50.0105" fill-rule="nonzero"/><path stroke="#000000" stroke-width="1.3333333333333333" stroke-linecap="butt" d="m96.772964 40.651554l0 50.0105" fill-rule="nonzero"/><path stroke="#000000" stroke-width="1.3333333333333333" stroke-linecap="butt" d="m186.53674 40.651554l0 50.0105" fill-rule="nonzero"/><path stroke="#000000" stroke-width="1.3333333333333333" stroke-linecap="butt" d="m276.46326 40.651554l0 50.0105" fill-rule="nonzero"/><path stroke="#000000" stroke-width="1.3333333333333333" stroke-linecap="butt" d="m366.2244 40.651554l0 50.0105" fill-rule="nonzero"/><path stroke="#000000" stroke-width="1.3333333333333333" stroke-linecap="butt" d="m455.9882 40.651554l0 50.0105" fill-rule="nonzero"/><path stroke="#000000" stroke-width="1.3333333333333333" stroke-linecap="butt" d="m6.3451443 41.318222l450.3097 0" fill-rule="nonzero"/><path stroke="#000000" stroke-width="1.3333333333333333" stroke-linecap="butt" d="m6.3451443 89.995384l450.3097 0" fill-rule="nonzero"/><path fill="#000000" d="m57.915825 64.61635l0 3.25q0 4.234375 -2.015625 6.703125q-1.578125 1.9375 -3.984375 1.9375q-1.15625 0 -2.1875 -0.46875q-1.015625 -0.453125 -1.734375 -1.28125q-0.453125 -0.515625 -1.0 -1.65625q-0.53125 -1.140625 -0.765625 -2.09375q-0.359375 -1.34375 -0.359375 -3.140625l0 -3.25q0 -4.25 2.015625 -6.71875q1.578125 -1.9375 3.984375 -1.9375q1.171875 0 2.1875 0.46875q1.015625 0.453125 1.734375 1.28125q0.46875 0.53125 1.0 1.671875q0.53125 1.140625 0.78125 2.078125q0.34375 1.34375 0.34375 3.15625zm-1.3125 0.171875q0 -1.859375 -0.53125 -3.453125q-0.515625 -1.609375 -1.171875 -2.5625q-0.390625 -0.546875 -1.015625 -0.9375q-0.890625 -0.546875 -2.0 -0.546875q-2.203125 0 -3.453125 2.25q-1.25 2.25 -1.25 5.25l0 2.890625q0 1.859375 0.515625 3.46875q0.53125 1.609375 1.203125 2.5625q0.375 0.53125 1.0 0.921875q0.890625 0.5625 2.015625 0.5625q2.1875 0 3.4375 -2.25q1.25 -2.265625 1.25 -5.265625l0 -2.890625z" fill-rule="nonzero"/><path fill="#000000" d="m142.3033 56.163223l0 18.5625l4.5 0q0.46875 0 0.671875 0.1875q0.203125 0.171875 0.203125 0.46875q0 0.28125 -0.203125 0.46875q-0.203125 0.1875 -0.671875 0.1875l-10.3125 0q-0.46875 0 -0.671875 -0.1875q-0.203125 -0.1875 -0.203125 -0.46875q0 -0.296875 0.203125 -0.46875q0.203125 -0.1875 0.671875 -0.1875l4.5 0l0 -16.75l-4.28125 1.34375q-0.3125 0.09375 -0.453125 0.09375q-0.234375 0 -0.4375 -0.1875q-0.1875 -0.203125 -0.1875 -0.46875q0 -0.234375 0.15625 -0.4375q0.125 -0.125 0.515625 -0.265625l6.0 -1.890625z" fill-rule="nonzero"/><path fill="#000000" d="m225.85156 74.72572l10.078125 0l0 -0.515625q0 -0.46875 0.1875 -0.671875q0.1875 -0.203125 0.484375 -0.203125q0.28125 0 0.46875 0.203125q0.1875 0.203125 0.1875 0.671875l0 1.828125l-12.6875 0l0 -1.9375q4.0 -3.59375 7.78125 -7.3125q1.765625 -1.734375 2.421875 -2.546875q0.65625 -0.8125 0.890625 -1.421875q0.25 -0.625 0.25 -1.25q0 -1.6875 -1.359375 -2.984375q-1.359375 -1.296875 -3.28125 -1.296875q-1.71875 0 -3.046875 0.984375q-1.328125 0.984375 -1.71875 2.4375q-0.09375 0.375 -0.234375 0.484375q-0.1875 0.15625 -0.4375 0.15625q-0.265625 0 -0.453125 -0.171875q-0.171875 -0.1875 -0.171875 -0.4375q0 -0.75 0.8125 -2.03125q0.828125 -1.28125 2.265625 -2.015625q1.453125 -0.734375 2.96875 -0.734375q2.453125 0 4.21875 1.703125q1.765625 1.703125 1.765625 3.859375q0 0.90625 -0.296875 1.671875q-0.296875 0.75 -1.015625 1.65625q-0.703125 0.890625 -2.546875 2.703125q-4.625 4.5625 -7.53125 7.078125l0 0.09375z" fill-rule="nonzero"/><path fill="#000000" d="m324.03915 65.36635q1.8125 0.8125 2.765625 2.234375q0.953125 1.40625 0.953125 2.9375q0 2.359375 -1.921875 4.171875q-1.90625 1.796875 -4.78125 1.796875q-1.6875 0 -3.5 -0.71875q-1.8125 -0.71875 -2.53125 -1.46875q-0.234375 -0.25 -0.234375 -0.53125q0 -0.25 0.171875 -0.4375q0.1875 -0.1875 0.4375 -0.1875q0.25 0 0.5625 0.234375q2.421875 1.796875 5.125 1.796875q2.28125 0 3.8125 -1.421875q1.546875 -1.4375 1.546875 -3.1875q0 -1.171875 -0.765625 -2.296875q-0.75 -1.125 -2.171875 -1.765625q-1.421875 -0.65625 -2.875 -0.65625q-0.46875 0 -0.671875 -0.171875q-0.203125 -0.1875 -0.203125 -0.484375q0 -0.28125 0.1875 -0.46875q0.203125 -0.1875 0.59375 -0.1875l1.125 0.015625q1.765625 0 2.90625 -1.078125q1.15625 -1.078125 1.15625 -2.5q0 -1.46875 -1.203125 -2.59375q-1.203125 -1.125 -3.140625 -1.125q-1.359375 0 -2.5 0.46875q-1.140625 0.46875 -1.828125 1.28125q-0.25 0.3125 -0.390625 0.390625q-0.125 0.0625 -0.296875 0.0625q-0.265625 0 -0.453125 -0.171875q-0.1875 -0.1875 -0.1875 -0.4375q0 -0.625 1.359375 -1.578125q1.890625 -1.328125 4.296875 -1.328125q2.484375 0 4.078125 1.5q1.59375 1.484375 1.59375 3.546875q0 1.3125 -0.765625 2.484375q-0.765625 1.171875 -2.25 1.875z" fill-rule="nonzero"/><path fill="#000000" d="m413.5516 70.55385l-8.703125 0l0 -1.515625l7.296875 -12.609375l2.734375 0l0 12.8125l1.09375 0q0.484375 0 0.6875 0.1875q0.203125 0.171875 0.203125 0.46875q0 0.28125 -0.203125 0.46875q-0.203125 0.1875 -0.6875 0.1875l-1.09375 0l0 4.171875l1.09375 0q0.484375 0 0.6875 0.1875q0.203125 0.171875 0.203125 0.46875q0 0.28125 -0.203125 0.46875q-0.203125 0.1875 -0.6875 0.1875l-4.875 0q-0.484375 0 -0.6875 -0.1875q-0.203125 -0.1875 -0.203125 -0.46875q0 -0.296875 0.203125 -0.46875q0.203125 -0.1875 0.6875 -0.1875l2.453125 0l0 -4.171875zm0 -1.3125l0 -11.484375l-0.6875 0l-6.640625 11.484375l7.328125 0z" fill-rule="nonzero"/><path fill="#000000" fill-opacity="0.0" d="m37.009186 110.66078l32.15748 0l0 86.67717l-32.15748 0z" fill-rule="evenodd"/><path fill="#000000" d="m55.56815 135.14078l0 -1.234375q-1.875 1.578125 -4.015625 1.578125q-1.546875 0 -2.421875 -0.78125q-0.859375 -0.796875 -0.859375 -1.9375q0 -1.25 1.140625 -2.171875q1.15625 -0.9375 3.359375 -0.9375q0.59375 0 1.28125 0.078125q0.703125 0.078125 1.515625 0.234375l0 -1.390625q0 -0.703125 -0.65625 -1.21875q-0.65625 -0.53125 -1.96875 -0.53125q-1.015625 0 -2.828125 0.578125q-0.328125 0.109375 -0.421875 0.109375q-0.15625 0 -0.28125 -0.125q-0.109375 -0.125 -0.109375 -0.3125q0 -0.171875 0.09375 -0.28125q0.15625 -0.140625 1.171875 -0.40625q1.59375 -0.4375 2.40625 -0.4375q1.640625 0 2.546875 0.8125q0.921875 0.796875 0.921875 1.8125l0 5.703125l1.140625 0q0.3125 0 0.4375 0.125q0.140625 0.109375 0.140625 0.296875q0 0.1875 -0.140625 0.3125q-0.125 0.125 -0.4375 0.125l-2.015625 0zm0 -4.28125q-0.609375 -0.171875 -1.296875 -0.25q-0.671875 -0.09375 -1.40625 -0.09375q-1.890625 0 -2.9375 0.8125q-0.796875 0.609375 -0.796875 1.4375q0 0.78125 0.609375 1.328125q0.609375 0.53125 1.78125 0.53125q1.109375 0 2.0625 -0.453125q0.96875 -0.453125 1.984375 -1.421875l0 -1.890625z" fill-rule="nonzero"/><path fill="#000000" d="m49.8494 152.26578l0 1.5625q0.765625 -0.9375 1.640625 -1.40625q0.890625 -0.46875 2.078125 -0.46875q1.28125 0 2.359375 0.59375q1.078125 0.59375 1.65625 1.65625q0.59375 1.0625 0.59375 2.234375q0 1.859375 -1.328125 3.171875q-1.328125 1.3125 -3.265625 1.3125q-2.3125 0 -3.734375 -1.875l0 5.1875l2.078125 0q0.3125 0 0.4375 0.109375q0.140625 0.125 0.140625 0.328125q0 0.1875 -0.140625 0.296875q-0.125 0.125 -0.4375 0.125l-4.109375 0q-0.296875 0 -0.4375 -0.125q-0.125 -0.109375 -0.125 -0.296875q0 -0.203125 0.125 -0.328125q0.140625 -0.109375 0.4375 -0.109375l1.15625 0l0 -11.109375l-1.15625 0q-0.296875 0 -0.4375 -0.109375q-0.125 -0.125 -0.125 -0.328125q0 -0.1875 0.125 -0.296875q0.140625 -0.125 0.4375 -0.125l2.03125 0zm7.453125 4.171875q0 -1.484375 -1.078125 -2.546875q-1.078125 -1.0625 -2.640625 -1.0625q-1.5625 0 -2.65625 1.0625q-1.078125 1.0625 -1.078125 2.546875q0 1.484375 1.078125 2.546875q1.09375 1.0625 2.65625 1.0625q1.546875 0 2.625 -1.046875q1.09375 -1.0625 1.09375 -2.5625z" fill-rule="nonzero"/><path fill="#000000" d="m56.427525 179.82828l0 -1.5625l2.015625 0q0.328125 0 0.453125 0.125q0.140625 0.109375 0.140625 0.3125q0 0.1875 -0.140625 0.3125q-0.125 0.109375 -0.453125 0.109375l-1.140625 0l0 11.109375l1.140625 0q0.328125 0 0.453125 0.109375q0.140625 0.125 0.140625 0.328125q0 0.1875 -0.140625 0.296875q-0.125 0.125 -0.453125 0.125l-4.09375 0q-0.3125 0 -0.453125 -0.125q-0.125 -0.109375 -0.125 -0.296875q0 -0.203125 0.125 -0.328125q0.140625 -0.109375 0.453125 -0.109375l2.078125 0l0 -5.1875q-1.421875 1.875 -3.75 1.875q-1.921875 0 -3.25 -1.3125q-1.328125 -1.3125 -1.328125 -3.171875q0 -1.875 1.328125 -3.171875q1.328125 -1.3125 3.28125 -1.3125q2.296875 0 3.71875 1.875zm0 2.609375q0 -1.484375 -1.09375 -2.546875q-1.078125 -1.0625 -2.640625 -1.0625q-1.5625 0 -2.65625 1.0625q-1.078125 1.0625 -1.078125 2.546875q0 1.484375 1.078125 2.546875q1.09375 1.0625 2.65625 1.0625q1.5625 0 2.640625 -1.0625q1.09375 -1.0625 1.09375 -2.546875z" fill-rule="nonzero"/><path fill="#000000" fill-opacity="0.0" d="m51.342518 118.66078l0 -24.818901" fill-rule="evenodd"/><path stroke="#000000" stroke-width="1.0" stroke-linejoin="round" stroke-linecap="butt" d="m51.342518 118.66078l0 -18.818901" fill-rule="evenodd"/><path fill="#000000" stroke="#000000" stroke-width="1.0" stroke-linecap="butt" d="m52.99425 99.84188l-1.6517334 -4.5380936l-1.6517296 4.5380936z" fill-rule="evenodd"/><path fill="#000000" fill-opacity="0.0" d="m102.17579 110.66078l83.49607 0l0 86.67717l-83.49607 0z" fill-rule="evenodd"/><path fill="#000000" d="m121.19994 135.14078l0 -1.234375q-1.875 1.578125 -4.015625 1.578125q-1.546875 0 -2.421875 -0.78125q-0.859375 -0.796875 -0.859375 -1.9375q0 -1.25 1.140625 -2.171875q1.15625 -0.9375 3.359375 -0.9375q0.59375 0 1.28125 0.078125q0.703125 0.078125 1.515625 0.234375l0 -1.390625q0 -0.703125 -0.65625 -1.21875q-0.65625 -0.53125 -1.96875 -0.53125q-1.015625 0 -2.828125 0.578125q-0.328125 0.109375 -0.421875 0.109375q-0.15625 0 -0.28125 -0.125q-0.109375 -0.125 -0.109375 -0.3125q0 -0.171875 0.09375 -0.28125q0.15625 -0.140625 1.171875 -0.40625q1.59375 -0.4375 2.40625 -0.4375q1.640625 0 2.546875 0.8125q0.921875 0.796875 0.921875 1.8125l0 5.703125l1.140625 0q0.3125 0 0.4375 0.125q0.140625 0.109375 0.140625 0.296875q0 0.1875 -0.140625 0.3125q-0.125 0.125 -0.4375 0.125l-2.015625 0zm0 -4.28125q-0.609375 -0.171875 -1.296875 -0.25q-0.671875 -0.09375 -1.40625 -0.09375q-1.890625 0 -2.9375 0.8125q-0.796875 0.609375 -0.796875 1.4375q0 0.78125 0.609375 1.328125q0.609375 0.53125 1.78125 0.53125q1.109375 0 2.0625 -0.453125q0.96875 -0.453125 1.984375 -1.421875l0 -1.890625zm23.157234 -1.28125l0 4.296875q0 0.3125 -0.125 0.453125q-0.125 0.125 -0.3125 0.125q-0.1875 0 -0.3125 -0.125q-0.125 -0.140625 -0.125 -0.453125l0 -4.296875l-3.8125 0q-0.296875 0 -0.4375 -0.109375q-0.125 -0.125 -0.125 -0.328125q0 -0.1875 0.125 -0.296875q0.140625 -0.125 0.4375 -0.125l3.8125 0l0 -4.296875q0 -0.296875 0.125 -0.4375q0.125 -0.140625 0.328125 -0.140625q0.171875 0 0.296875 0.140625q0.125 0.140625 0.125 0.4375l0 4.296875l3.8125 0q0.3125 0 0.4375 0.125q0.140625 0.109375 0.140625 0.296875q0 0.203125 -0.140625 0.328125q-0.125 0.109375 -0.4375 0.109375l-3.8125 0zm25.204102 -7.484375l0 12.1875l2.953125 0q0.296875 0 0.421875 0.125q0.140625 0.109375 0.140625 0.296875q0 0.1875 -0.140625 0.3125q-0.125 0.125 -0.421875 0.125l-6.78125 0q-0.296875 0 -0.4375 -0.125q-0.125 -0.125 -0.125 -0.3125q0 -0.1875 0.125 -0.296875q0.140625 -0.125 0.4375 -0.125l2.953125 0l0 -11.0l-2.796875 0.890625q-0.21875 0.0625 -0.296875 0.0625q-0.15625 0 -0.296875 -0.125q-0.125 -0.140625 -0.125 -0.3125q0 -0.15625 0.109375 -0.28125q0.078125 -0.078125 0.34375 -0.171875l3.9375 -1.25z" fill-rule="nonzero"/><path fill="#000000" d="m115.48119 152.26578l0 1.5625q0.765625 -0.9375 1.640625 -1.40625q0.890625 -0.46875 2.078125 -0.46875q1.28125 0 2.359375 0.59375q1.078125 0.59375 1.65625 1.65625q0.59375 1.0625 0.59375 2.234375q0 1.859375 -1.328125 3.171875q-1.328125 1.3125 -3.265625 1.3125q-2.3125 0 -3.734375 -1.875l0 5.1875l2.078125 0q0.3125 0 0.4375 0.109375q0.140625 0.125 0.140625 0.328125q0 0.1875 -0.140625 0.296875q-0.125 0.125 -0.4375 0.125l-4.109375 0q-0.296875 0 -0.4375 -0.125q-0.125 -0.109375 -0.125 -0.296875q0 -0.203125 0.125 -0.328125q0.140625 -0.109375 0.4375 -0.109375l1.15625 0l0 -11.109375l-1.15625 0q-0.296875 0 -0.4375 -0.109375q-0.125 -0.125 -0.125 -0.328125q0 -0.1875 0.125 -0.296875q0.140625 -0.125 0.4375 -0.125l2.03125 0zm7.453125 4.171875q0 -1.484375 -1.078125 -2.546875q-1.078125 -1.0625 -2.640625 -1.0625q-1.5625 0 -2.65625 1.0625q-1.078125 1.0625 -1.078125 2.546875q0 1.484375 1.078125 2.546875q1.09375 1.0625 2.65625 1.0625q1.546875 0 2.625 -1.046875q1.09375 -1.0625 1.09375 -2.5625zm21.42286 -0.859375l0 4.296875q0 0.3125 -0.125 0.453125q-0.125 0.125 -0.3125 0.125q-0.1875 0 -0.3125 -0.125q-0.125 -0.140625 -0.125 -0.453125l0 -4.296875l-3.8125 0q-0.296875 0 -0.4375 -0.109375q-0.125 -0.125 -0.125 -0.328125q0 -0.1875 0.125 -0.296875q0.140625 -0.125 0.4375 -0.125l3.8125 0l0 -4.296875q0 -0.296875 0.125 -0.4375q0.125 -0.140625 0.328125 -0.140625q0.171875 0 0.296875 0.140625q0.125 0.140625 0.125 0.4375l0 4.296875l3.8125 0q0.3125 0 0.4375 0.125q0.140625 0.109375 0.140625 0.296875q0 0.203125 -0.140625 0.328125q-0.125 0.109375 -0.4375 0.109375l-3.8125 0zm25.204102 -7.484375l0 12.1875l2.953125 0q0.296875 0 0.421875 0.125q0.140625 0.109375 0.140625 0.296875q0 0.1875 -0.140625 0.3125q-0.125 0.125 -0.421875 0.125l-6.78125 0q-0.296875 0 -0.4375 -0.125q-0.125 -0.125 -0.125 -0.3125q0 -0.1875 0.125 -0.296875q0.140625 -0.125 0.4375 -0.125l2.953125 0l0 -11.0l-2.796875 0.890625q-0.21875 0.0625 -0.296875 0.0625q-0.15625 0 -0.296875 -0.125q-0.125 -0.140625 -0.125 -0.3125q0 -0.15625 0.109375 -0.28125q0.078125 -0.078125 0.34375 -0.171875l3.9375 -1.25z" fill-rule="nonzero"/><path fill="#000000" d="m122.05932 179.82828l0 -1.5625l2.015625 0q0.328125 0 0.453125 0.125q0.140625 0.109375 0.140625 0.3125q0 0.1875 -0.140625 0.3125q-0.125 0.109375 -0.453125 0.109375l-1.140625 0l0 11.109375l1.140625 0q0.328125 0 0.453125 0.109375q0.140625 0.125 0.140625 0.328125q0 0.1875 -0.140625 0.296875q-0.125 0.125 -0.453125 0.125l-4.09375 0q-0.3125 0 -0.453125 -0.125q-0.125 -0.109375 -0.125 -0.296875q0 -0.203125 0.125 -0.328125q0.140625 -0.109375 0.453125 -0.109375l2.078125 0l0 -5.1875q-1.421875 1.875 -3.75 1.875q-1.921875 0 -3.25 -1.3125q-1.328125 -1.3125 -1.328125 -3.171875q0 -1.875 1.328125 -3.171875q1.328125 -1.3125 3.28125 -1.3125q2.296875 0 3.71875 1.875zm0 2.609375q0 -1.484375 -1.09375 -2.546875q-1.078125 -1.0625 -2.640625 -1.0625q-1.5625 0 -2.65625 1.0625q-1.078125 1.0625 -1.078125 2.546875q0 1.484375 1.078125 2.546875q1.09375 1.0625 2.65625 1.0625q1.5625 0 2.640625 -1.0625q1.09375 -1.0625 1.09375 -2.546875zm22.29786 -0.859375l0 4.296875q0 0.3125 -0.125 0.453125q-0.125 0.125 -0.3125 0.125q-0.1875 0 -0.3125 -0.125q-0.125 -0.140625 -0.125 -0.453125l0 -4.296875l-3.8125 0q-0.296875 0 -0.4375 -0.109375q-0.125 -0.125 -0.125 -0.328125q0 -0.1875 0.125 -0.296875q0.140625 -0.125 0.4375 -0.125l3.8125 0l0 -4.296875q0 -0.296875 0.125 -0.4375q0.125 -0.140625 0.328125 -0.140625q0.171875 0 0.296875 0.140625q0.125 0.140625 0.125 0.4375l0 4.296875l3.8125 0q0.3125 0 0.4375 0.125q0.140625 0.109375 0.140625 0.296875q0 0.203125 -0.140625 0.328125q-0.125 0.109375 -0.4375 0.109375l-3.8125 0zm25.204102 -7.484375l0 12.1875l2.953125 0q0.296875 0 0.421875 0.125q0.140625 0.109375 0.140625 0.296875q0 0.1875 -0.140625 0.3125q-0.125 0.125 -0.421875 0.125l-6.78125 0q-0.296875 0 -0.4375 -0.125q-0.125 -0.125 -0.125 -0.3125q0 -0.1875 0.125 -0.296875q0.140625 -0.125 0.4375 -0.125l2.953125 0l0 -11.0l-2.796875 0.890625q-0.21875 0.0625 -0.296875 0.0625q-0.15625 0 -0.296875 -0.125q-0.125 -0.140625 -0.125 -0.3125q0 -0.15625 0.109375 -0.28125q0.078125 -0.078125 0.34375 -0.171875l3.9375 -1.25z" fill-rule="nonzero"/><path fill="#000000" fill-opacity="0.0" d="m195.67583 110.66078l83.49608 0l0 86.67717l-83.49608 0z" fill-rule="evenodd"/><path fill="#000000" d="m214.69998 135.14078l0 -1.234375q-1.875 1.578125 -4.015625 1.578125q-1.546875 0 -2.421875 -0.78125q-0.859375 -0.796875 -0.859375 -1.9375q0 -1.25 1.140625 -2.171875q1.15625 -0.9375 3.359375 -0.9375q0.59375 0 1.28125 0.078125q0.703125 0.078125 1.515625 0.234375l0 -1.390625q0 -0.703125 -0.65625 -1.21875q-0.65625 -0.53125 -1.96875 -0.53125q-1.015625 0 -2.828125 0.578125q-0.328125 0.109375 -0.421875 0.109375q-0.15625 0 -0.28125 -0.125q-0.109375 -0.125 -0.109375 -0.3125q0 -0.171875 0.09375 -0.28125q0.15625 -0.140625 1.171875 -0.40625q1.59375 -0.4375 2.40625 -0.4375q1.640625 0 2.546875 0.8125q0.921875 0.796875 0.921875 1.8125l0 5.703125l1.140625 0q0.3125 0 0.4375 0.125q0.140625 0.109375 0.140625 0.296875q0 0.1875 -0.140625 0.3125q-0.125 0.125 -0.4375 0.125l-2.015625 0zm0 -4.28125q-0.609375 -0.171875 -1.296875 -0.25q-0.671875 -0.09375 -1.40625 -0.09375q-1.890625 0 -2.9375 0.8125q-0.796875 0.609375 -0.796875 1.4375q0 0.78125 0.609375 1.328125q0.609375 0.53125 1.78125 0.53125q1.109375 0 2.0625 -0.453125q0.96875 -0.453125 1.984375 -1.421875l0 -1.890625zm23.157227 -1.28125l0 4.296875q0 0.3125 -0.125 0.453125q-0.125 0.125 -0.3125 0.125q-0.1875 0 -0.3125 -0.125q-0.125 -0.140625 -0.125 -0.453125l0 -4.296875l-3.8125 0q-0.296875 0 -0.4375 -0.109375q-0.125 -0.125 -0.125 -0.328125q0 -0.1875 0.125 -0.296875q0.140625 -0.125 0.4375 -0.125l3.8125 0l0 -4.296875q0 -0.296875 0.125 -0.4375q0.125 -0.140625 0.328125 -0.140625q0.171875 0 0.296875 0.140625q0.125 0.140625 0.125 0.4375l0 4.296875l3.8125 0q0.3125 0 0.4375 0.125q0.140625 0.109375 0.140625 0.296875q0 0.203125 -0.140625 0.328125q-0.125 0.109375 -0.4375 0.109375l-3.8125 0zm21.063477 4.703125l6.609375 0l0 -0.34375q0 -0.296875 0.125 -0.4375q0.125 -0.140625 0.328125 -0.140625q0.171875 0 0.296875 0.140625q0.125 0.140625 0.125 0.4375l0 1.203125l-8.328125 0l0 -1.265625q2.625 -2.359375 5.109375 -4.8125q1.15625 -1.125 1.578125 -1.65625q0.4375 -0.546875 0.59375 -0.9375q0.171875 -0.40625 0.171875 -0.828125q0 -1.109375 -0.90625 -1.953125q-0.890625 -0.859375 -2.140625 -0.859375q-1.125 0 -2.0 0.65625q-0.875 0.640625 -1.125 1.59375q-0.0625 0.25 -0.15625 0.328125q-0.125 0.09375 -0.296875 0.09375q-0.171875 0 -0.296875 -0.109375q-0.109375 -0.125 -0.109375 -0.28125q0 -0.5 0.53125 -1.34375q0.546875 -0.84375 1.484375 -1.3125q0.953125 -0.484375 1.953125 -0.484375q1.609375 0 2.765625 1.125q1.15625 1.109375 1.15625 2.515625q0 0.59375 -0.1875 1.09375q-0.1875 0.5 -0.65625 1.09375q-0.46875 0.59375 -1.6875 1.78125q-3.03125 2.984375 -4.9375 4.640625l0 0.0625z" fill-rule="nonzero"/><path fill="#000000" d="m208.98123 152.26578l0 1.5625q0.765625 -0.9375 1.640625 -1.40625q0.890625 -0.46875 2.078125 -0.46875q1.28125 0 2.359375 0.59375q1.078125 0.59375 1.65625 1.65625q0.59375 1.0625 0.59375 2.234375q0 1.859375 -1.328125 3.171875q-1.328125 1.3125 -3.265625 1.3125q-2.3125 0 -3.734375 -1.875l0 5.1875l2.078125 0q0.3125 0 0.4375 0.109375q0.140625 0.125 0.140625 0.328125q0 0.1875 -0.140625 0.296875q-0.125 0.125 -0.4375 0.125l-4.109375 0q-0.296875 0 -0.4375 -0.125q-0.125 -0.109375 -0.125 -0.296875q0 -0.203125 0.125 -0.328125q0.140625 -0.109375 0.4375 -0.109375l1.15625 0l0 -11.109375l-1.15625 0q-0.296875 0 -0.4375 -0.109375q-0.125 -0.125 -0.125 -0.328125q0 -0.1875 0.125 -0.296875q0.140625 -0.125 0.4375 -0.125l2.03125 0zm7.453125 4.171875q0 -1.484375 -1.078125 -2.546875q-1.078125 -1.0625 -2.640625 -1.0625q-1.5625 0 -2.65625 1.0625q-1.078125 1.0625 -1.078125 2.546875q0 1.484375 1.078125 2.546875q1.09375 1.0625 2.65625 1.0625q1.546875 0 2.625 -1.046875q1.09375 -1.0625 1.09375 -2.5625zm21.422852 -0.859375l0 4.296875q0 0.3125 -0.125 0.453125q-0.125 0.125 -0.3125 0.125q-0.1875 0 -0.3125 -0.125q-0.125 -0.140625 -0.125 -0.453125l0 -4.296875l-3.8125 0q-0.296875 0 -0.4375 -0.109375q-0.125 -0.125 -0.125 -0.328125q0 -0.1875 0.125 -0.296875q0.140625 -0.125 0.4375 -0.125l3.8125 0l0 -4.296875q0 -0.296875 0.125 -0.4375q0.125 -0.140625 0.328125 -0.140625q0.171875 0 0.296875 0.140625q0.125 0.140625 0.125 0.4375l0 4.296875l3.8125 0q0.3125 0 0.4375 0.125q0.140625 0.109375 0.140625 0.296875q0 0.203125 -0.140625 0.328125q-0.125 0.109375 -0.4375 0.109375l-3.8125 0zm21.063477 4.703125l6.609375 0l0 -0.34375q0 -0.296875 0.125 -0.4375q0.125 -0.140625 0.328125 -0.140625q0.171875 0 0.296875 0.140625q0.125 0.140625 0.125 0.4375l0 1.203125l-8.328125 0l0 -1.265625q2.625 -2.359375 5.109375 -4.8125q1.15625 -1.125 1.578125 -1.65625q0.4375 -0.546875 0.59375 -0.9375q0.171875 -0.40625 0.171875 -0.828125q0 -1.109375 -0.90625 -1.953125q-0.890625 -0.859375 -2.140625 -0.859375q-1.125 0 -2.0 0.65625q-0.875 0.640625 -1.125 1.59375q-0.0625 0.25 -0.15625 0.328125q-0.125 0.09375 -0.296875 0.09375q-0.171875 0 -0.296875 -0.109375q-0.109375 -0.125 -0.109375 -0.28125q0 -0.5 0.53125 -1.34375q0.546875 -0.84375 1.484375 -1.3125q0.953125 -0.484375 1.953125 -0.484375q1.609375 0 2.765625 1.125q1.15625 1.109375 1.15625 2.515625q0 0.59375 -0.1875 1.09375q-0.1875 0.5 -0.65625 1.09375q-0.46875 0.59375 -1.6875 1.78125q-3.03125 2.984375 -4.9375 4.640625l0 0.0625z" fill-rule="nonzero"/><path fill="#000000" d="m215.55936 179.82828l0 -1.5625l2.015625 0q0.328125 0 0.453125 0.125q0.140625 0.109375 0.140625 0.3125q0 0.1875 -0.140625 0.3125q-0.125 0.109375 -0.453125 0.109375l-1.140625 0l0 11.109375l1.140625 0q0.328125 0 0.453125 0.109375q0.140625 0.125 0.140625 0.328125q0 0.1875 -0.140625 0.296875q-0.125 0.125 -0.453125 0.125l-4.09375 0q-0.3125 0 -0.453125 -0.125q-0.125 -0.109375 -0.125 -0.296875q0 -0.203125 0.125 -0.328125q0.140625 -0.109375 0.453125 -0.109375l2.078125 0l0 -5.1875q-1.421875 1.875 -3.75 1.875q-1.921875 0 -3.25 -1.3125q-1.328125 -1.3125 -1.328125 -3.171875q0 -1.875 1.328125 -3.171875q1.328125 -1.3125 3.28125 -1.3125q2.296875 0 3.71875 1.875zm0 2.609375q0 -1.484375 -1.09375 -2.546875q-1.078125 -1.0625 -2.640625 -1.0625q-1.5625 0 -2.65625 1.0625q-1.078125 1.0625 -1.078125 2.546875q0 1.484375 1.078125 2.546875q1.09375 1.0625 2.65625 1.0625q1.5625 0 2.640625 -1.0625q1.09375 -1.0625 1.09375 -2.546875zm22.297852 -0.859375l0 4.296875q0 0.3125 -0.125 0.453125q-0.125 0.125 -0.3125 0.125q-0.1875 0 -0.3125 -0.125q-0.125 -0.140625 -0.125 -0.453125l0 -4.296875l-3.8125 0q-0.296875 0 -0.4375 -0.109375q-0.125 -0.125 -0.125 -0.328125q0 -0.1875 0.125 -0.296875q0.140625 -0.125 0.4375 -0.125l3.8125 0l0 -4.296875q0 -0.296875 0.125 -0.4375q0.125 -0.140625 0.328125 -0.140625q0.171875 0 0.296875 0.140625q0.125 0.140625 0.125 0.4375l0 4.296875l3.8125 0q0.3125 0 0.4375 0.125q0.140625 0.109375 0.140625 0.296875q0 0.203125 -0.140625 0.328125q-0.125 0.109375 -0.4375 0.109375l-3.8125 0zm21.063477 4.703125l6.609375 0l0 -0.34375q0 -0.296875 0.125 -0.4375q0.125 -0.140625 0.328125 -0.140625q0.171875 0 0.296875 0.140625q0.125 0.140625 0.125 0.4375l0 1.203125l-8.328125 0l0 -1.265625q2.625 -2.359375 5.109375 -4.8125q1.15625 -1.125 1.578125 -1.65625q0.4375 -0.546875 0.59375 -0.9375q0.171875 -0.40625 0.171875 -0.828125q0 -1.109375 -0.90625 -1.953125q-0.890625 -0.859375 -2.140625 -0.859375q-1.125 0 -2.0 0.65625q-0.875 0.640625 -1.125 1.59375q-0.0625 0.25 -0.15625 0.328125q-0.125 0.09375 -0.296875 0.09375q-0.171875 0 -0.296875 -0.109375q-0.109375 -0.125 -0.109375 -0.28125q0 -0.5 0.53125 -1.34375q0.546875 -0.84375 1.484375 -1.3125q0.953125 -0.484375 1.953125 -0.484375q1.609375 0 2.765625 1.125q1.15625 1.109375 1.15625 2.515625q0 0.59375 -0.1875 1.09375q-0.1875 0.5 -0.65625 1.09375q-0.46875 0.59375 -1.6875 1.78125q-3.03125 2.984375 -4.9375 4.640625l0 0.0625z" fill-rule="nonzero"/><path fill="#000000" fill-opacity="0.0" d="m15.0078125 0.662053l83.49606 0l0 38.48819l-83.49606 0z" fill-rule="evenodd"/><path fill="#000000" d="m34.039062 27.702051l0 -1.421875q-2.140625 1.8125 -4.578125 1.8125q-1.765625 0 -2.765625 -0.890625q-1.0 -0.90625 -1.0 -2.203125q0 -1.4375 1.3125 -2.5q1.3125 -1.0625 3.828125 -1.0625q0.6875 0 1.484375 0.09375q0.796875 0.078125 1.71875 0.265625l0 -1.59375q0 -0.8125 -0.75 -1.40625q-0.75 -0.59375 -2.25 -0.59375q-1.140625 0 -3.21875 0.65625q-0.375 0.125 -0.484375 0.125q-0.1875 0 -0.328125 -0.140625q-0.125 -0.140625 -0.125 -0.359375q0 -0.1875 0.109375 -0.3125q0.171875 -0.171875 1.328125 -0.484375q1.828125 -0.484375 2.765625 -0.484375q1.859375 0 2.90625 0.921875q1.046875 0.921875 1.046875 2.078125l0 6.515625l1.3125 0q0.359375 0 0.515625 0.140625q0.15625 0.125 0.15625 0.34375q0 0.21875 -0.15625 0.359375q-0.15625 0.140625 -0.515625 0.140625l-2.3125 0zm0 -4.90625q-0.6875 -0.1875 -1.46875 -0.28125q-0.765625 -0.09375 -1.625 -0.09375q-2.140625 0 -3.34375 0.921875q-0.921875 0.6875 -0.921875 1.65625q0 0.890625 0.6875 1.5q0.703125 0.609375 2.046875 0.609375q1.28125 0 2.375 -0.515625q1.09375 -0.515625 2.25 -1.625l0 -2.171875zm12.074219 -8.812499l0 15.765624l2.390625 0q0.34375 0 0.5 0.140625q0.15625 0.140625 0.15625 0.359375q0 0.21875 -0.15625 0.34375q-0.15625 0.140625 -0.5 0.140625l-3.375 0l0 -17.734375l3.375 0q0.34375 0 0.5 0.140625q0.15625 0.140625 0.15625 0.359375q0 0.203125 -0.15625 0.34375q-0.15625 0.140625 -0.5 0.140625l-2.390625 0zm18.417969 5.156249l0 2.4375q0 3.171875 -1.515625 5.015625q-1.171875 1.46875 -2.984375 1.46875q-0.859375 0 -1.640625 -0.359375q-0.765625 -0.34375 -1.296875 -0.96875q-0.34375 -0.375 -0.75 -1.234375q-0.40625 -0.859375 -0.578125 -1.578125q-0.265625 -1.0 -0.265625 -2.34375l0 -2.4375q0 -3.187499 1.515625 -5.046874q1.171875 -1.453125 2.984375 -1.453125q0.875 0 1.640625 0.34375q0.765625 0.34375 1.296875 0.96875q0.359375 0.40625 0.75 1.265625q0.40625 0.84374905 0.59375 1.546874q0.25 1.015625 0.25 2.375zm-0.984375 0.125q0 -1.390625 -0.390625 -2.59375q-0.390625 -1.203124 -0.890625 -1.921874q-0.28125 -0.40625 -0.75 -0.703125q-0.671875 -0.40625 -1.5 -0.40625q-1.65625 0 -2.59375 1.6875q-0.9375 1.687499 -0.9375 3.937499l0 2.171875q0 1.390625 0.390625 2.59375q0.390625 1.203125 0.890625 1.921875q0.28125 0.40625 0.75 0.6875q0.671875 0.421875 1.515625 0.421875q1.640625 0 2.578125 -1.6875q0.9375 -1.6875 0.9375 -3.9375l0 -2.171875zm10.402344 10.484375l0 -15.765624l-2.375 0q-0.34375 0 -0.5 -0.140625q-0.15625 -0.140625 -0.15625 -0.34375q0 -0.21875 0.15625 -0.359375q0.15625 -0.140625 0.5 -0.140625l3.375 0l0 17.734375l-3.375 0q-0.34375 0 -0.5 -0.140625q-0.15625 -0.125 -0.15625 -0.34375q0 -0.21875 0.15625 -0.359375q0.15625 -0.140625 0.5 -0.140625l2.375 0z" fill-rule="nonzero"/><path fill="#000000" fill-opacity="0.0" d="m106.18112 0.662053l83.49606 0l0 38.48819l-83.49606 0z" fill-rule="evenodd"/><path fill="#000000" d="m125.21237 27.702051l0 -1.421875q-2.140625 1.8125 -4.578125 1.8125q-1.765625 0 -2.765625 -0.890625q-1.0 -0.90625 -1.0 -2.203125q0 -1.4375 1.3125 -2.5q1.3125 -1.0625 3.828125 -1.0625q0.6875 0 1.484375 0.09375q0.796875 0.078125 1.71875 0.265625l0 -1.59375q0 -0.8125 -0.75 -1.40625q-0.75 -0.59375 -2.25 -0.59375q-1.140625 0 -3.21875 0.65625q-0.375 0.125 -0.484375 0.125q-0.1875 0 -0.328125 -0.140625q-0.125 -0.140625 -0.125 -0.359375q0 -0.1875 0.109375 -0.3125q0.171875 -0.171875 1.328125 -0.484375q1.828125 -0.484375 2.765625 -0.484375q1.859375 0 2.90625 0.921875q1.046875 0.921875 1.046875 2.078125l0 6.515625l1.3125 0q0.359375 0 0.515625 0.140625q0.15625 0.125 0.15625 0.34375q0 0.21875 -0.15625 0.359375q-0.15625 0.140625 -0.515625 0.140625l-2.3125 0zm0 -4.90625q-0.6875 -0.1875 -1.46875 -0.28125q-0.765625 -0.09375 -1.625 -0.09375q-2.140625 0 -3.34375 0.921875q-0.921875 0.6875 -0.921875 1.65625q0 0.890625 0.6875 1.5q0.703125 0.609375 2.046875 0.609375q1.28125 0 2.375 -0.515625q1.09375 -0.515625 2.25 -1.625l0 -2.171875zm12.074219 -8.812499l0 15.765624l2.390625 0q0.34375 0 0.5 0.140625q0.15625 0.140625 0.15625 0.359375q0 0.21875 -0.15625 0.34375q-0.15625 0.140625 -0.5 0.140625l-3.375 0l0 -17.734375l3.375 0q0.34375 0 0.5 0.140625q0.15625 0.140625 0.15625 0.359375q0 0.203125 -0.15625 0.34375q-0.15625 0.140625 -0.5 0.140625l-2.390625 0zm14.386719 -1.1875l0 13.921874l3.375 0q0.359375 0 0.5 0.140625q0.15625 0.125 0.15625 0.34375q0 0.21875 -0.15625 0.359375q-0.140625 0.140625 -0.5 0.140625l-7.734375 0q-0.34375 0 -0.5 -0.140625q-0.15625 -0.140625 -0.15625 -0.359375q0 -0.21875 0.15625 -0.34375q0.15625 -0.140625 0.5 -0.140625l3.375 0l0 -12.562499l-3.203125 1.0q-0.234375 0.078125 -0.34375 0.078125q-0.171875 0 -0.328125 -0.140625q-0.140625 -0.15625 -0.140625 -0.359375q0 -0.171875 0.109375 -0.328125q0.09375 -0.09375 0.390625 -0.1875l4.5 -1.421875zm13.449219 16.953125l0 -15.765624l-2.375 0q-0.34375 0 -0.5 -0.140625q-0.15625 -0.140625 -0.15625 -0.34375q0 -0.21875 0.15625 -0.359375q0.15625 -0.140625 0.5 -0.140625l3.375 0l0 17.734375l-3.375 0q-0.34375 0 -0.5 -0.140625q-0.15625 -0.125 -0.15625 -0.34375q0 -0.21875 0.15625 -0.359375q0.15625 -0.140625 0.5 -0.140625l2.375 0z" fill-rule="nonzero"/><path fill="#000000" fill-opacity="0.0" d="m195.67717 0.662053l83.49608 0l0 38.48819l-83.49608 0z" fill-rule="evenodd"/><path fill="#000000" d="m214.70842 27.702051l0 -1.421875q-2.140625 1.8125 -4.578125 1.8125q-1.765625 0 -2.765625 -0.890625q-1.0 -0.90625 -1.0 -2.203125q0 -1.4375 1.3125 -2.5q1.3125 -1.0625 3.828125 -1.0625q0.6875 0 1.484375 0.09375q0.796875 0.078125 1.71875 0.265625l0 -1.59375q0 -0.8125 -0.75 -1.40625q-0.75 -0.59375 -2.25 -0.59375q-1.140625 0 -3.21875 0.65625q-0.375 0.125 -0.484375 0.125q-0.1875 0 -0.328125 -0.140625q-0.125 -0.140625 -0.125 -0.359375q0 -0.1875 0.109375 -0.3125q0.171875 -0.171875 1.328125 -0.484375q1.828125 -0.484375 2.765625 -0.484375q1.859375 0 2.90625 0.921875q1.046875 0.921875 1.046875 2.078125l0 6.515625l1.3125 0q0.359375 0 0.515625 0.140625q0.15625 0.125 0.15625 0.34375q0 0.21875 -0.15625 0.359375q-0.15625 0.140625 -0.515625 0.140625l-2.3125 0zm0 -4.90625q-0.6875 -0.1875 -1.46875 -0.28125q-0.765625 -0.09375 -1.625 -0.09375q-2.140625 0 -3.34375 0.921875q-0.921875 0.6875 -0.921875 1.65625q0 0.890625 0.6875 1.5q0.703125 0.609375 2.046875 0.609375q1.28125 0 2.375 -0.515625q1.09375 -0.515625 2.25 -1.625l0 -2.171875zm12.074219 -8.812499l0 15.765624l2.390625 0q0.34375 0 0.5 0.140625q0.15625 0.140625 0.15625 0.359375q0 0.21875 -0.15625 0.34375q-0.15625 0.140625 -0.5 0.140625l-3.375 0l0 -17.734375l3.375 0q0.34375 0 0.5 0.140625q0.15625 0.140625 0.15625 0.359375q0 0.203125 -0.15625 0.34375q-0.15625 0.140625 -0.5 0.140625l-2.390625 0zm9.667969 12.734374l7.5625 0l0 -0.390625q0 -0.34375 0.140625 -0.5q0.140625 -0.15625 0.359375 -0.15625q0.203125 0 0.34375 0.15625q0.140625 0.15625 0.140625 0.5l0 1.375l-9.515625 0l0 -1.453125q3.0 -2.703125 5.84375 -5.484375q1.328125 -1.296875 1.8125 -1.90625q0.5 -0.609375 0.671875 -1.078125q0.1875 -0.46875 0.1875 -0.9375q0 -1.265624 -1.03125 -2.234374q-1.015625 -0.96875 -2.453125 -0.96875q-1.28125 0 -2.28125 0.734375q-1.0 0.734375 -1.296875 1.828124q-0.0625 0.28125 -0.171875 0.359375q-0.140625 0.125 -0.328125 0.125q-0.203125 0 -0.34375 -0.125q-0.125 -0.140625 -0.125 -0.328125q0 -0.56249905 0.609375 -1.515624q0.625 -0.96875 1.703125 -1.515625q1.09375 -0.5625 2.21875 -0.5625q1.84375 0 3.171875 1.28125q1.328125 1.28125 1.328125 2.890624q0 0.6875 -0.234375 1.25q-0.21875 0.5625 -0.75 1.25q-0.53125 0.671875 -1.921875 2.03125q-3.46875 3.421875 -5.640625 5.296875l0 0.078125zm18.167969 3.03125l0 -15.765624l-2.375 0q-0.34375 0 -0.5 -0.140625q-0.15625 -0.140625 -0.15625 -0.34375q0 -0.21875 0.15625 -0.359375q0.15625 -0.140625 0.5 -0.140625l3.375 0l0 17.734375l-3.375 0q-0.34375 0 -0.5 -0.140625q-0.15625 -0.125 -0.15625 -0.34375q0 -0.21875 0.15625 -0.359375q0.15625 -0.140625 0.5 -0.140625l2.375 0z" fill-rule="nonzero"/><path fill="#000000" fill-opacity="0.0" d="m139.34251 118.66078l0 -24.818901" fill-rule="evenodd"/><path stroke="#000000" stroke-width="1.0" stroke-linejoin="round" stroke-linecap="butt" d="m139.34251 118.66078l0 -18.818901" fill-rule="evenodd"/><path fill="#000000" stroke="#000000" stroke-width="1.0" stroke-linecap="butt" d="m140.99425 99.84188l-1.6517334 -4.5380936l-1.6517334 4.5380936z" fill-rule="evenodd"/><path fill="#000000" fill-opacity="0.0" d="m235.34251 118.66078l0 -24.818901" fill-rule="evenodd"/><path stroke="#000000" stroke-width="1.0" stroke-linejoin="round" stroke-linecap="butt" d="m235.34251 118.66078l0 -18.818901" fill-rule="evenodd"/><path fill="#000000" stroke="#000000" stroke-width="1.0" stroke-linecap="butt" d="m236.99425 99.84188l-1.6517334 -4.5380936l-1.6517334 4.5380936z" fill-rule="evenodd"/></g></svg>